<mxfile host="app.diagrams.net" modified="2023-05-31T12:56:26.322Z" agent="Mozilla/5.0 (Windows NT 10.0; Win64; x64) AppleWebKit/537.36 (KHTML, like Gecko) Chrome/114.0.0.0 Safari/537.36" etag="qcAC8yytgR-BwqXmVXt2" version="21.3.6" type="device">
  <diagram name="Page-1" id="d_zS_mG1hwPKLzOZtT-N">
    <mxGraphModel dx="4045" dy="1080" grid="1" gridSize="10" guides="1" tooltips="1" connect="1" arrows="1" fold="1" page="1" pageScale="1" pageWidth="827" pageHeight="1169" math="0" shadow="0">
      <root>
        <mxCell id="0" />
        <mxCell id="1" parent="0" />
        <mxCell id="sWIOzSoLqstiNpKyMAqf-1" style="edgeStyle=orthogonalEdgeStyle;rounded=0;orthogonalLoop=1;jettySize=auto;html=1;" parent="1" source="sWIOzSoLqstiNpKyMAqf-2" target="sWIOzSoLqstiNpKyMAqf-16" edge="1">
          <mxGeometry relative="1" as="geometry">
            <mxPoint x="-760" y="405" as="targetPoint" />
          </mxGeometry>
        </mxCell>
        <mxCell id="sWIOzSoLqstiNpKyMAqf-2" value="Start&lt;br&gt;(Age function)" style="rounded=1;whiteSpace=wrap;html=1;fillColor=#fff2cc;strokeColor=#d6b656;" parent="1" vertex="1">
          <mxGeometry x="-940" y="386.25" width="120" height="37.5" as="geometry" />
        </mxCell>
        <mxCell id="sWIOzSoLqstiNpKyMAqf-3" style="edgeStyle=orthogonalEdgeStyle;rounded=0;orthogonalLoop=1;jettySize=auto;html=1;" parent="1" target="sWIOzSoLqstiNpKyMAqf-7" edge="1">
          <mxGeometry relative="1" as="geometry">
            <mxPoint x="-660.0000000000002" y="405" as="sourcePoint" />
          </mxGeometry>
        </mxCell>
        <mxCell id="sWIOzSoLqstiNpKyMAqf-4" style="edgeStyle=orthogonalEdgeStyle;rounded=0;orthogonalLoop=1;jettySize=auto;html=1;" parent="1" source="sWIOzSoLqstiNpKyMAqf-7" target="sWIOzSoLqstiNpKyMAqf-10" edge="1">
          <mxGeometry relative="1" as="geometry" />
        </mxCell>
        <mxCell id="sWIOzSoLqstiNpKyMAqf-5" value="True" style="edgeLabel;html=1;align=center;verticalAlign=middle;resizable=0;points=[];" parent="sWIOzSoLqstiNpKyMAqf-4" vertex="1" connectable="0">
          <mxGeometry x="-0.3043" y="-1" relative="1" as="geometry">
            <mxPoint as="offset" />
          </mxGeometry>
        </mxCell>
        <mxCell id="sWIOzSoLqstiNpKyMAqf-6" value="False" style="edgeStyle=orthogonalEdgeStyle;rounded=0;orthogonalLoop=1;jettySize=auto;html=1;" parent="1" source="sWIOzSoLqstiNpKyMAqf-7" target="sWIOzSoLqstiNpKyMAqf-24" edge="1">
          <mxGeometry relative="1" as="geometry">
            <mxPoint x="-531" y="480" as="targetPoint" />
          </mxGeometry>
        </mxCell>
        <mxCell id="sWIOzSoLqstiNpKyMAqf-7" value="If age is&lt;br&gt;&amp;nbsp;&amp;gt;=13 or &amp;lt;=18" style="rhombus;whiteSpace=wrap;html=1;fillColor=#f8cecc;strokeColor=#b85450;" parent="1" vertex="1">
          <mxGeometry x="-586" y="360" width="110" height="90" as="geometry" />
        </mxCell>
        <mxCell id="sWIOzSoLqstiNpKyMAqf-8" value="end" style="rounded=1;whiteSpace=wrap;html=1;fillColor=#fff2cc;strokeColor=#d6b656;" parent="1" vertex="1">
          <mxGeometry x="-430" y="490" width="120" height="37.5" as="geometry" />
        </mxCell>
        <mxCell id="sWIOzSoLqstiNpKyMAqf-9" style="edgeStyle=orthogonalEdgeStyle;rounded=0;orthogonalLoop=1;jettySize=auto;html=1;entryX=0.5;entryY=0;entryDx=0;entryDy=0;" parent="1" source="sWIOzSoLqstiNpKyMAqf-10" target="sWIOzSoLqstiNpKyMAqf-8" edge="1">
          <mxGeometry relative="1" as="geometry" />
        </mxCell>
        <mxCell id="sWIOzSoLqstiNpKyMAqf-10" value="Open frame_1 function" style="rounded=0;whiteSpace=wrap;html=1;fillColor=#d5e8d4;strokeColor=#82b366;" parent="1" vertex="1">
          <mxGeometry x="-430" y="375" width="120" height="60" as="geometry" />
        </mxCell>
        <mxCell id="sWIOzSoLqstiNpKyMAqf-11" style="edgeStyle=orthogonalEdgeStyle;rounded=0;orthogonalLoop=1;jettySize=auto;html=1;" parent="1" source="sWIOzSoLqstiNpKyMAqf-12" target="sWIOzSoLqstiNpKyMAqf-29" edge="1">
          <mxGeometry relative="1" as="geometry" />
        </mxCell>
        <mxCell id="sWIOzSoLqstiNpKyMAqf-12" value="Start&lt;br&gt;(Frame0)" style="rounded=1;whiteSpace=wrap;html=1;fillColor=#fff2cc;strokeColor=#d6b656;" parent="1" vertex="1">
          <mxGeometry x="-1000" y="116.88" width="120" height="37.5" as="geometry" />
        </mxCell>
        <mxCell id="sWIOzSoLqstiNpKyMAqf-13" style="edgeStyle=orthogonalEdgeStyle;rounded=0;orthogonalLoop=1;jettySize=auto;html=1;" parent="1" source="sWIOzSoLqstiNpKyMAqf-14" target="sWIOzSoLqstiNpKyMAqf-18" edge="1">
          <mxGeometry relative="1" as="geometry" />
        </mxCell>
        <mxCell id="sWIOzSoLqstiNpKyMAqf-14" value="Widget label:&lt;br&gt;&quot;Enter age&quot;" style="shape=parallelogram;perimeter=parallelogramPerimeter;whiteSpace=wrap;html=1;fixedSize=1;fillColor=#1ba1e2;strokeColor=#006EAF;fontColor=#ffffff;" parent="1" vertex="1">
          <mxGeometry x="-720" y="105.63" width="120" height="60" as="geometry" />
        </mxCell>
        <mxCell id="sWIOzSoLqstiNpKyMAqf-15" value="" style="edgeStyle=orthogonalEdgeStyle;rounded=0;orthogonalLoop=1;jettySize=auto;html=1;" parent="1" source="sWIOzSoLqstiNpKyMAqf-16" target="sWIOzSoLqstiNpKyMAqf-7" edge="1">
          <mxGeometry relative="1" as="geometry" />
        </mxCell>
        <mxCell id="sWIOzSoLqstiNpKyMAqf-16" value="age.get()" style="rounded=0;whiteSpace=wrap;html=1;fillColor=#d5e8d4;strokeColor=#82b366;" parent="1" vertex="1">
          <mxGeometry x="-760" y="375" width="120" height="60" as="geometry" />
        </mxCell>
        <mxCell id="sWIOzSoLqstiNpKyMAqf-17" style="edgeStyle=orthogonalEdgeStyle;rounded=0;orthogonalLoop=1;jettySize=auto;html=1;" parent="1" source="sWIOzSoLqstiNpKyMAqf-18" target="sWIOzSoLqstiNpKyMAqf-20" edge="1">
          <mxGeometry relative="1" as="geometry">
            <mxPoint x="-440" y="135.63" as="targetPoint" />
          </mxGeometry>
        </mxCell>
        <mxCell id="sWIOzSoLqstiNpKyMAqf-18" value="Widget (entrybox)" style="shape=parallelogram;perimeter=parallelogramPerimeter;whiteSpace=wrap;html=1;fixedSize=1;fillColor=#dae8fc;strokeColor=#6c8ebf;" parent="1" vertex="1">
          <mxGeometry x="-580" y="105.63" width="120" height="60" as="geometry" />
        </mxCell>
        <mxCell id="sWIOzSoLqstiNpKyMAqf-19" value="True" style="edgeStyle=orthogonalEdgeStyle;rounded=0;orthogonalLoop=1;jettySize=auto;html=1;" parent="1" source="sWIOzSoLqstiNpKyMAqf-20" target="sWIOzSoLqstiNpKyMAqf-22" edge="1">
          <mxGeometry relative="1" as="geometry" />
        </mxCell>
        <mxCell id="sWIOzSoLqstiNpKyMAqf-20" value="Widget (button)" style="shape=parallelogram;perimeter=parallelogramPerimeter;whiteSpace=wrap;html=1;fixedSize=1;fillColor=#dae8fc;strokeColor=#6c8ebf;" parent="1" vertex="1">
          <mxGeometry x="-430" y="105.63" width="120" height="60" as="geometry" />
        </mxCell>
        <mxCell id="sWIOzSoLqstiNpKyMAqf-21" style="edgeStyle=orthogonalEdgeStyle;rounded=0;orthogonalLoop=1;jettySize=auto;html=1;" parent="1" source="sWIOzSoLqstiNpKyMAqf-22" target="sWIOzSoLqstiNpKyMAqf-88" edge="1">
          <mxGeometry relative="1" as="geometry" />
        </mxCell>
        <mxCell id="sWIOzSoLqstiNpKyMAqf-22" value="Run age function&lt;br&gt;if press button" style="rounded=0;whiteSpace=wrap;html=1;fillColor=#d5e8d4;strokeColor=#82b366;" parent="1" vertex="1">
          <mxGeometry x="-430" y="205.63" width="120" height="60" as="geometry" />
        </mxCell>
        <mxCell id="sWIOzSoLqstiNpKyMAqf-23" style="edgeStyle=orthogonalEdgeStyle;rounded=0;orthogonalLoop=1;jettySize=auto;html=1;entryX=0.5;entryY=0;entryDx=0;entryDy=0;" parent="1" source="sWIOzSoLqstiNpKyMAqf-24" target="sWIOzSoLqstiNpKyMAqf-25" edge="1">
          <mxGeometry relative="1" as="geometry" />
        </mxCell>
        <mxCell id="sWIOzSoLqstiNpKyMAqf-24" value="Messagebox:&lt;br&gt;&quot;Age must be between&lt;br&gt;13-18&quot;" style="shape=parallelogram;perimeter=parallelogramPerimeter;whiteSpace=wrap;html=1;fixedSize=1;fillColor=#1ba1e2;strokeColor=#006EAF;fontColor=#ffffff;" parent="1" vertex="1">
          <mxGeometry x="-591" y="478.75" width="120" height="60" as="geometry" />
        </mxCell>
        <mxCell id="sWIOzSoLqstiNpKyMAqf-25" value="end" style="rounded=1;whiteSpace=wrap;html=1;fillColor=#fff2cc;strokeColor=#d6b656;" parent="1" vertex="1">
          <mxGeometry x="-591" y="570" width="120" height="37.5" as="geometry" />
        </mxCell>
        <mxCell id="sWIOzSoLqstiNpKyMAqf-26" style="edgeStyle=orthogonalEdgeStyle;rounded=0;orthogonalLoop=1;jettySize=auto;html=1;" parent="1" source="sWIOzSoLqstiNpKyMAqf-27" target="sWIOzSoLqstiNpKyMAqf-33" edge="1">
          <mxGeometry relative="1" as="geometry" />
        </mxCell>
        <mxCell id="sWIOzSoLqstiNpKyMAqf-27" value="Start&lt;br&gt;(frame_1(Login))" style="rounded=1;whiteSpace=wrap;html=1;fillColor=#fff2cc;strokeColor=#d6b656;" parent="1" vertex="1">
          <mxGeometry x="-110" y="108.75" width="120" height="37.5" as="geometry" />
        </mxCell>
        <mxCell id="sWIOzSoLqstiNpKyMAqf-28" style="edgeStyle=orthogonalEdgeStyle;rounded=0;orthogonalLoop=1;jettySize=auto;html=1;" parent="1" source="sWIOzSoLqstiNpKyMAqf-29" target="sWIOzSoLqstiNpKyMAqf-14" edge="1">
          <mxGeometry relative="1" as="geometry" />
        </mxCell>
        <mxCell id="sWIOzSoLqstiNpKyMAqf-29" value="Create frame(window)" style="rounded=0;whiteSpace=wrap;html=1;fillColor=#d5e8d4;strokeColor=#82b366;" parent="1" vertex="1">
          <mxGeometry x="-860" y="105.63" width="120" height="60" as="geometry" />
        </mxCell>
        <mxCell id="sWIOzSoLqstiNpKyMAqf-30" style="edgeStyle=orthogonalEdgeStyle;rounded=0;orthogonalLoop=1;jettySize=auto;html=1;" parent="1" source="sWIOzSoLqstiNpKyMAqf-31" target="sWIOzSoLqstiNpKyMAqf-35" edge="1">
          <mxGeometry relative="1" as="geometry" />
        </mxCell>
        <mxCell id="sWIOzSoLqstiNpKyMAqf-31" value="Widget label:&lt;br&gt;&quot;Welcome to&lt;br&gt;BDSC MENU APP&quot;" style="shape=parallelogram;perimeter=parallelogramPerimeter;whiteSpace=wrap;html=1;fixedSize=1;fillColor=#1ba1e2;strokeColor=#006EAF;fontColor=#ffffff;" parent="1" vertex="1">
          <mxGeometry x="210" y="97.5" width="150" height="60" as="geometry" />
        </mxCell>
        <mxCell id="sWIOzSoLqstiNpKyMAqf-32" style="edgeStyle=orthogonalEdgeStyle;rounded=0;orthogonalLoop=1;jettySize=auto;html=1;" parent="1" source="sWIOzSoLqstiNpKyMAqf-33" target="sWIOzSoLqstiNpKyMAqf-31" edge="1">
          <mxGeometry relative="1" as="geometry" />
        </mxCell>
        <mxCell id="sWIOzSoLqstiNpKyMAqf-33" value="Create frame(window)" style="rounded=0;whiteSpace=wrap;html=1;fillColor=#d5e8d4;strokeColor=#82b366;" parent="1" vertex="1">
          <mxGeometry x="50" y="97.5" width="120" height="60" as="geometry" />
        </mxCell>
        <mxCell id="sWIOzSoLqstiNpKyMAqf-34" style="edgeStyle=orthogonalEdgeStyle;rounded=0;orthogonalLoop=1;jettySize=auto;html=1;entryX=0;entryY=0.5;entryDx=0;entryDy=0;" parent="1" source="sWIOzSoLqstiNpKyMAqf-35" target="sWIOzSoLqstiNpKyMAqf-37" edge="1">
          <mxGeometry relative="1" as="geometry" />
        </mxCell>
        <mxCell id="sWIOzSoLqstiNpKyMAqf-35" value="&lt;br&gt;Widget entrybox&lt;br&gt;(entry_name)&lt;br&gt;" style="shape=parallelogram;perimeter=parallelogramPerimeter;whiteSpace=wrap;html=1;fixedSize=1;fillColor=#dae8fc;strokeColor=#6c8ebf;" parent="1" vertex="1">
          <mxGeometry x="380" y="97.5" width="150" height="60" as="geometry" />
        </mxCell>
        <mxCell id="sWIOzSoLqstiNpKyMAqf-36" style="edgeStyle=orthogonalEdgeStyle;rounded=0;orthogonalLoop=1;jettySize=auto;html=1;entryX=0.46;entryY=0.014;entryDx=0;entryDy=0;entryPerimeter=0;" parent="1" source="sWIOzSoLqstiNpKyMAqf-37" target="sWIOzSoLqstiNpKyMAqf-40" edge="1">
          <mxGeometry relative="1" as="geometry">
            <Array as="points">
              <mxPoint x="625" y="170" />
              <mxPoint x="-49" y="170" />
            </Array>
          </mxGeometry>
        </mxCell>
        <mxCell id="sWIOzSoLqstiNpKyMAqf-37" value="&lt;br&gt;Widget entrybox&lt;br&gt;(entry_password)" style="shape=parallelogram;perimeter=parallelogramPerimeter;whiteSpace=wrap;html=1;fixedSize=1;fillColor=#dae8fc;strokeColor=#6c8ebf;" parent="1" vertex="1">
          <mxGeometry x="550" y="97.5" width="150" height="60" as="geometry" />
        </mxCell>
        <mxCell id="sWIOzSoLqstiNpKyMAqf-38" value="False" style="edgeStyle=orthogonalEdgeStyle;rounded=0;orthogonalLoop=1;jettySize=auto;html=1;" parent="1" source="sWIOzSoLqstiNpKyMAqf-40" target="sWIOzSoLqstiNpKyMAqf-43" edge="1">
          <mxGeometry relative="1" as="geometry">
            <mxPoint x="60" y="220" as="targetPoint" />
          </mxGeometry>
        </mxCell>
        <mxCell id="sWIOzSoLqstiNpKyMAqf-39" value="True" style="edgeStyle=orthogonalEdgeStyle;rounded=0;orthogonalLoop=1;jettySize=auto;html=1;entryX=0.5;entryY=0;entryDx=0;entryDy=0;" parent="1" source="sWIOzSoLqstiNpKyMAqf-40" target="sWIOzSoLqstiNpKyMAqf-47" edge="1">
          <mxGeometry relative="1" as="geometry">
            <mxPoint x="-43" y="300" as="targetPoint" />
          </mxGeometry>
        </mxCell>
        <mxCell id="sWIOzSoLqstiNpKyMAqf-40" value="Widget button(Add account)" style="shape=parallelogram;perimeter=parallelogramPerimeter;whiteSpace=wrap;html=1;fixedSize=1;fillColor=#dae8fc;strokeColor=#6c8ebf;" parent="1" vertex="1">
          <mxGeometry x="-118" y="190" width="150" height="60" as="geometry" />
        </mxCell>
        <mxCell id="sWIOzSoLqstiNpKyMAqf-41" value="False" style="edgeStyle=orthogonalEdgeStyle;rounded=0;orthogonalLoop=1;jettySize=auto;html=1;" parent="1" source="sWIOzSoLqstiNpKyMAqf-43" target="sWIOzSoLqstiNpKyMAqf-45" edge="1">
          <mxGeometry relative="1" as="geometry" />
        </mxCell>
        <mxCell id="sWIOzSoLqstiNpKyMAqf-42" value="True" style="edgeStyle=orthogonalEdgeStyle;rounded=0;orthogonalLoop=1;jettySize=auto;html=1;" parent="1" source="sWIOzSoLqstiNpKyMAqf-43" target="sWIOzSoLqstiNpKyMAqf-49" edge="1">
          <mxGeometry relative="1" as="geometry" />
        </mxCell>
        <mxCell id="sWIOzSoLqstiNpKyMAqf-43" value="Widget button(Login)" style="shape=parallelogram;perimeter=parallelogramPerimeter;whiteSpace=wrap;html=1;fixedSize=1;fillColor=#dae8fc;strokeColor=#6c8ebf;" parent="1" vertex="1">
          <mxGeometry x="70" y="190" width="150" height="60" as="geometry" />
        </mxCell>
        <mxCell id="sWIOzSoLqstiNpKyMAqf-44" value="True" style="edgeStyle=orthogonalEdgeStyle;rounded=0;orthogonalLoop=1;jettySize=auto;html=1;" parent="1" source="sWIOzSoLqstiNpKyMAqf-45" target="sWIOzSoLqstiNpKyMAqf-51" edge="1">
          <mxGeometry relative="1" as="geometry">
            <Array as="points">
              <mxPoint x="320" y="260" />
              <mxPoint x="320" y="260" />
            </Array>
          </mxGeometry>
        </mxCell>
        <mxCell id="sWIOzSoLqstiNpKyMAqf-45" value="Widget button(remove&lt;br&gt;account)" style="shape=parallelogram;perimeter=parallelogramPerimeter;whiteSpace=wrap;html=1;fixedSize=1;fillColor=#dae8fc;strokeColor=#6c8ebf;" parent="1" vertex="1">
          <mxGeometry x="245" y="190" width="150" height="60" as="geometry" />
        </mxCell>
        <mxCell id="sWIOzSoLqstiNpKyMAqf-46" style="edgeStyle=orthogonalEdgeStyle;rounded=0;orthogonalLoop=1;jettySize=auto;html=1;" parent="1" source="sWIOzSoLqstiNpKyMAqf-47" target="sWIOzSoLqstiNpKyMAqf-52" edge="1">
          <mxGeometry relative="1" as="geometry" />
        </mxCell>
        <mxCell id="sWIOzSoLqstiNpKyMAqf-47" value="Run add_acc&amp;nbsp;&lt;br&gt;function" style="rounded=0;whiteSpace=wrap;html=1;fillColor=#d5e8d4;strokeColor=#82b366;" parent="1" vertex="1">
          <mxGeometry x="-103" y="290" width="120" height="60" as="geometry" />
        </mxCell>
        <mxCell id="sWIOzSoLqstiNpKyMAqf-48" style="edgeStyle=orthogonalEdgeStyle;rounded=0;orthogonalLoop=1;jettySize=auto;html=1;entryX=0.5;entryY=0;entryDx=0;entryDy=0;" parent="1" source="sWIOzSoLqstiNpKyMAqf-49" target="sWIOzSoLqstiNpKyMAqf-53" edge="1">
          <mxGeometry relative="1" as="geometry" />
        </mxCell>
        <mxCell id="sWIOzSoLqstiNpKyMAqf-49" value="Run the login function" style="rounded=0;whiteSpace=wrap;html=1;fillColor=#d5e8d4;strokeColor=#82b366;" parent="1" vertex="1">
          <mxGeometry x="85" y="290" width="120" height="60" as="geometry" />
        </mxCell>
        <mxCell id="sWIOzSoLqstiNpKyMAqf-50" style="edgeStyle=orthogonalEdgeStyle;rounded=0;orthogonalLoop=1;jettySize=auto;html=1;" parent="1" source="sWIOzSoLqstiNpKyMAqf-51" target="sWIOzSoLqstiNpKyMAqf-54" edge="1">
          <mxGeometry relative="1" as="geometry" />
        </mxCell>
        <mxCell id="sWIOzSoLqstiNpKyMAqf-51" value="Run the reset function" style="rounded=0;whiteSpace=wrap;html=1;fillColor=#d5e8d4;strokeColor=#82b366;" parent="1" vertex="1">
          <mxGeometry x="260" y="290" width="120" height="60" as="geometry" />
        </mxCell>
        <mxCell id="sWIOzSoLqstiNpKyMAqf-52" value="End" style="rounded=1;whiteSpace=wrap;html=1;fillColor=#fff2cc;strokeColor=#d6b656;" parent="1" vertex="1">
          <mxGeometry x="-103" y="380" width="120" height="30" as="geometry" />
        </mxCell>
        <mxCell id="sWIOzSoLqstiNpKyMAqf-53" value="End" style="rounded=1;whiteSpace=wrap;html=1;fillColor=#fff2cc;strokeColor=#d6b656;" parent="1" vertex="1">
          <mxGeometry x="85" y="375" width="120" height="27.5" as="geometry" />
        </mxCell>
        <mxCell id="sWIOzSoLqstiNpKyMAqf-54" value="End" style="rounded=1;whiteSpace=wrap;html=1;fillColor=#fff2cc;strokeColor=#d6b656;" parent="1" vertex="1">
          <mxGeometry x="260" y="372.5" width="120" height="27.5" as="geometry" />
        </mxCell>
        <mxCell id="sWIOzSoLqstiNpKyMAqf-55" style="edgeStyle=orthogonalEdgeStyle;rounded=0;orthogonalLoop=1;jettySize=auto;html=1;" parent="1" source="sWIOzSoLqstiNpKyMAqf-56" target="sWIOzSoLqstiNpKyMAqf-58" edge="1">
          <mxGeometry relative="1" as="geometry">
            <mxPoint x="-723" y="1047.51" as="targetPoint" />
          </mxGeometry>
        </mxCell>
        <mxCell id="sWIOzSoLqstiNpKyMAqf-56" value="Start&lt;br&gt;(confirm function)" style="rounded=1;whiteSpace=wrap;html=1;fillColor=#fff2cc;strokeColor=#d6b656;" parent="1" vertex="1">
          <mxGeometry x="-873" y="1028.76" width="120" height="37.5" as="geometry" />
        </mxCell>
        <mxCell id="sWIOzSoLqstiNpKyMAqf-57" style="edgeStyle=orthogonalEdgeStyle;rounded=0;orthogonalLoop=1;jettySize=auto;html=1;" parent="1" source="sWIOzSoLqstiNpKyMAqf-58" target="sWIOzSoLqstiNpKyMAqf-60" edge="1">
          <mxGeometry relative="1" as="geometry" />
        </mxCell>
        <mxCell id="sWIOzSoLqstiNpKyMAqf-58" value="entry_name and&lt;br&gt;entry password.get()&lt;br&gt;Open txt file." style="rounded=0;whiteSpace=wrap;html=1;fillColor=#d5e8d4;strokeColor=#82b366;" parent="1" vertex="1">
          <mxGeometry x="-713" y="1017.51" width="120" height="60" as="geometry" />
        </mxCell>
        <mxCell id="sWIOzSoLqstiNpKyMAqf-59" style="edgeStyle=orthogonalEdgeStyle;rounded=0;orthogonalLoop=1;jettySize=auto;html=1;" parent="1" source="sWIOzSoLqstiNpKyMAqf-60" target="sWIOzSoLqstiNpKyMAqf-61" edge="1">
          <mxGeometry relative="1" as="geometry" />
        </mxCell>
        <mxCell id="sWIOzSoLqstiNpKyMAqf-60" value="Store entry_name&lt;br&gt;and password into&amp;nbsp;&lt;br&gt;txt file." style="rounded=0;whiteSpace=wrap;html=1;fillColor=#d5e8d4;strokeColor=#82b366;" parent="1" vertex="1">
          <mxGeometry x="-563" y="1017.51" width="120" height="60" as="geometry" />
        </mxCell>
        <mxCell id="sWIOzSoLqstiNpKyMAqf-61" value="End" style="rounded=1;whiteSpace=wrap;html=1;fillColor=#fff2cc;strokeColor=#d6b656;" parent="1" vertex="1">
          <mxGeometry x="-420" y="1032.51" width="120" height="30" as="geometry" />
        </mxCell>
        <mxCell id="sWIOzSoLqstiNpKyMAqf-62" style="edgeStyle=orthogonalEdgeStyle;rounded=0;orthogonalLoop=1;jettySize=auto;html=1;" parent="1" source="sWIOzSoLqstiNpKyMAqf-63" target="sWIOzSoLqstiNpKyMAqf-65" edge="1">
          <mxGeometry relative="1" as="geometry">
            <mxPoint x="-740" y="792.51" as="targetPoint" />
          </mxGeometry>
        </mxCell>
        <mxCell id="sWIOzSoLqstiNpKyMAqf-63" value="Start&lt;br&gt;(Login function)" style="rounded=1;whiteSpace=wrap;html=1;fillColor=#fff2cc;strokeColor=#d6b656;" parent="1" vertex="1">
          <mxGeometry x="-890" y="773.76" width="120" height="37.5" as="geometry" />
        </mxCell>
        <mxCell id="sWIOzSoLqstiNpKyMAqf-64" style="edgeStyle=orthogonalEdgeStyle;rounded=0;orthogonalLoop=1;jettySize=auto;html=1;entryX=0;entryY=0.5;entryDx=0;entryDy=0;" parent="1" source="sWIOzSoLqstiNpKyMAqf-65" target="sWIOzSoLqstiNpKyMAqf-69" edge="1">
          <mxGeometry relative="1" as="geometry">
            <mxPoint x="-580" y="792.51" as="targetPoint" />
          </mxGeometry>
        </mxCell>
        <mxCell id="sWIOzSoLqstiNpKyMAqf-65" value="entry_name and&lt;br&gt;entry password.get()&lt;br&gt;Open txt file." style="rounded=0;whiteSpace=wrap;html=1;fillColor=#d5e8d4;strokeColor=#82b366;" parent="1" vertex="1">
          <mxGeometry x="-730" y="762.51" width="120" height="60" as="geometry" />
        </mxCell>
        <mxCell id="sWIOzSoLqstiNpKyMAqf-66" value="End" style="rounded=1;whiteSpace=wrap;html=1;fillColor=#fff2cc;strokeColor=#d6b656;" parent="1" vertex="1">
          <mxGeometry x="-420" y="852.51" width="120" height="30" as="geometry" />
        </mxCell>
        <mxCell id="sWIOzSoLqstiNpKyMAqf-67" value="True" style="edgeStyle=orthogonalEdgeStyle;rounded=0;orthogonalLoop=1;jettySize=auto;html=1;" parent="1" source="sWIOzSoLqstiNpKyMAqf-69" target="sWIOzSoLqstiNpKyMAqf-71" edge="1">
          <mxGeometry relative="1" as="geometry" />
        </mxCell>
        <mxCell id="sWIOzSoLqstiNpKyMAqf-68" value="False" style="edgeStyle=orthogonalEdgeStyle;rounded=0;orthogonalLoop=1;jettySize=auto;html=1;entryX=0.5;entryY=0;entryDx=0;entryDy=0;" parent="1" source="sWIOzSoLqstiNpKyMAqf-69" target="sWIOzSoLqstiNpKyMAqf-73" edge="1">
          <mxGeometry relative="1" as="geometry" />
        </mxCell>
        <mxCell id="sWIOzSoLqstiNpKyMAqf-69" value="If entries in&amp;nbsp;&lt;br&gt;txt file" style="rhombus;whiteSpace=wrap;html=1;fillColor=#f8cecc;strokeColor=#b85450;" parent="1" vertex="1">
          <mxGeometry x="-575" y="747.51" width="110" height="90" as="geometry" />
        </mxCell>
        <mxCell id="sWIOzSoLqstiNpKyMAqf-70" style="edgeStyle=orthogonalEdgeStyle;rounded=0;orthogonalLoop=1;jettySize=auto;html=1;entryX=0.5;entryY=0;entryDx=0;entryDy=0;" parent="1" source="sWIOzSoLqstiNpKyMAqf-71" target="sWIOzSoLqstiNpKyMAqf-66" edge="1">
          <mxGeometry relative="1" as="geometry" />
        </mxCell>
        <mxCell id="sWIOzSoLqstiNpKyMAqf-71" value="Run frame_2&amp;nbsp;&lt;br&gt;function" style="rounded=0;whiteSpace=wrap;html=1;fillColor=#d5e8d4;strokeColor=#82b366;" parent="1" vertex="1">
          <mxGeometry x="-420" y="762.51" width="120" height="60" as="geometry" />
        </mxCell>
        <mxCell id="sWIOzSoLqstiNpKyMAqf-72" style="edgeStyle=orthogonalEdgeStyle;rounded=0;orthogonalLoop=1;jettySize=auto;html=1;entryX=0.5;entryY=0;entryDx=0;entryDy=0;" parent="1" source="sWIOzSoLqstiNpKyMAqf-73" target="sWIOzSoLqstiNpKyMAqf-74" edge="1">
          <mxGeometry relative="1" as="geometry" />
        </mxCell>
        <mxCell id="sWIOzSoLqstiNpKyMAqf-73" value="Messagebox:&lt;br&gt;&quot;Incorrect &lt;br&gt;password&quot;" style="shape=parallelogram;perimeter=parallelogramPerimeter;whiteSpace=wrap;html=1;fixedSize=1;fillColor=#1ba1e2;strokeColor=#006EAF;fontColor=#ffffff;" parent="1" vertex="1">
          <mxGeometry x="-580" y="872.51" width="120" height="60" as="geometry" />
        </mxCell>
        <mxCell id="sWIOzSoLqstiNpKyMAqf-74" value="End" style="rounded=1;whiteSpace=wrap;html=1;fillColor=#fff2cc;strokeColor=#d6b656;" parent="1" vertex="1">
          <mxGeometry x="-580" y="962.51" width="120" height="30" as="geometry" />
        </mxCell>
        <mxCell id="sWIOzSoLqstiNpKyMAqf-75" style="edgeStyle=orthogonalEdgeStyle;rounded=0;orthogonalLoop=1;jettySize=auto;html=1;" parent="1" source="sWIOzSoLqstiNpKyMAqf-76" target="sWIOzSoLqstiNpKyMAqf-78" edge="1">
          <mxGeometry relative="1" as="geometry">
            <mxPoint x="-723" y="1162.51" as="targetPoint" />
          </mxGeometry>
        </mxCell>
        <mxCell id="sWIOzSoLqstiNpKyMAqf-76" value="Start&lt;br&gt;(reset function)" style="rounded=1;whiteSpace=wrap;html=1;fillColor=#fff2cc;strokeColor=#d6b656;" parent="1" vertex="1">
          <mxGeometry x="-873" y="1143.76" width="120" height="37.5" as="geometry" />
        </mxCell>
        <mxCell id="sWIOzSoLqstiNpKyMAqf-77" style="edgeStyle=orthogonalEdgeStyle;rounded=0;orthogonalLoop=1;jettySize=auto;html=1;entryX=0;entryY=0.5;entryDx=0;entryDy=0;" parent="1" source="sWIOzSoLqstiNpKyMAqf-78" target="sWIOzSoLqstiNpKyMAqf-82" edge="1">
          <mxGeometry relative="1" as="geometry">
            <mxPoint x="-563" y="1162.51" as="targetPoint" />
          </mxGeometry>
        </mxCell>
        <mxCell id="sWIOzSoLqstiNpKyMAqf-78" value="entry_name and&lt;br&gt;entry password.get()&lt;br&gt;Open txt file." style="rounded=0;whiteSpace=wrap;html=1;fillColor=#d5e8d4;strokeColor=#82b366;" parent="1" vertex="1">
          <mxGeometry x="-713" y="1132.51" width="120" height="60" as="geometry" />
        </mxCell>
        <mxCell id="sWIOzSoLqstiNpKyMAqf-79" value="End" style="rounded=1;whiteSpace=wrap;html=1;fillColor=#fff2cc;strokeColor=#d6b656;" parent="1" vertex="1">
          <mxGeometry x="-403" y="1222.51" width="120" height="30" as="geometry" />
        </mxCell>
        <mxCell id="sWIOzSoLqstiNpKyMAqf-80" value="True" style="edgeStyle=orthogonalEdgeStyle;rounded=0;orthogonalLoop=1;jettySize=auto;html=1;" parent="1" source="sWIOzSoLqstiNpKyMAqf-82" target="sWIOzSoLqstiNpKyMAqf-84" edge="1">
          <mxGeometry relative="1" as="geometry" />
        </mxCell>
        <mxCell id="sWIOzSoLqstiNpKyMAqf-81" value="False" style="edgeStyle=orthogonalEdgeStyle;rounded=0;orthogonalLoop=1;jettySize=auto;html=1;entryX=0.5;entryY=0;entryDx=0;entryDy=0;" parent="1" source="sWIOzSoLqstiNpKyMAqf-82" target="sWIOzSoLqstiNpKyMAqf-86" edge="1">
          <mxGeometry relative="1" as="geometry" />
        </mxCell>
        <mxCell id="sWIOzSoLqstiNpKyMAqf-82" value="If entries in&amp;nbsp;&lt;br&gt;txt file" style="rhombus;whiteSpace=wrap;html=1;fillColor=#f8cecc;strokeColor=#b85450;" parent="1" vertex="1">
          <mxGeometry x="-558" y="1117.51" width="110" height="90" as="geometry" />
        </mxCell>
        <mxCell id="sWIOzSoLqstiNpKyMAqf-83" style="edgeStyle=orthogonalEdgeStyle;rounded=0;orthogonalLoop=1;jettySize=auto;html=1;entryX=0.5;entryY=0;entryDx=0;entryDy=0;" parent="1" source="sWIOzSoLqstiNpKyMAqf-84" target="sWIOzSoLqstiNpKyMAqf-79" edge="1">
          <mxGeometry relative="1" as="geometry" />
        </mxCell>
        <mxCell id="sWIOzSoLqstiNpKyMAqf-84" value="Erase txt file" style="rounded=0;whiteSpace=wrap;html=1;fillColor=#d5e8d4;strokeColor=#82b366;" parent="1" vertex="1">
          <mxGeometry x="-403" y="1132.51" width="120" height="60" as="geometry" />
        </mxCell>
        <mxCell id="sWIOzSoLqstiNpKyMAqf-85" style="edgeStyle=orthogonalEdgeStyle;rounded=0;orthogonalLoop=1;jettySize=auto;html=1;entryX=0.5;entryY=0;entryDx=0;entryDy=0;" parent="1" source="sWIOzSoLqstiNpKyMAqf-86" target="sWIOzSoLqstiNpKyMAqf-87" edge="1">
          <mxGeometry relative="1" as="geometry" />
        </mxCell>
        <mxCell id="sWIOzSoLqstiNpKyMAqf-86" value="Messagebox:&lt;br&gt;&quot;Incorrect &lt;br&gt;password&quot;" style="shape=parallelogram;perimeter=parallelogramPerimeter;whiteSpace=wrap;html=1;fixedSize=1;fillColor=#1ba1e2;strokeColor=#006EAF;fontColor=#ffffff;" parent="1" vertex="1">
          <mxGeometry x="-563" y="1247.51" width="120" height="60" as="geometry" />
        </mxCell>
        <mxCell id="sWIOzSoLqstiNpKyMAqf-87" value="End" style="rounded=1;whiteSpace=wrap;html=1;fillColor=#fff2cc;strokeColor=#d6b656;" parent="1" vertex="1">
          <mxGeometry x="-563" y="1337.51" width="120" height="30" as="geometry" />
        </mxCell>
        <mxCell id="sWIOzSoLqstiNpKyMAqf-88" value="end" style="rounded=1;whiteSpace=wrap;html=1;fillColor=#fff2cc;strokeColor=#d6b656;" parent="1" vertex="1">
          <mxGeometry x="-430" y="296.88" width="120" height="37.5" as="geometry" />
        </mxCell>
        <mxCell id="sWIOzSoLqstiNpKyMAqf-92" style="edgeStyle=orthogonalEdgeStyle;rounded=0;orthogonalLoop=1;jettySize=auto;html=1;" parent="1" source="sWIOzSoLqstiNpKyMAqf-89" target="sWIOzSoLqstiNpKyMAqf-91" edge="1">
          <mxGeometry relative="1" as="geometry" />
        </mxCell>
        <mxCell id="sWIOzSoLqstiNpKyMAqf-89" value="Start&lt;br&gt;(Frame_2(Menu))" style="rounded=1;whiteSpace=wrap;html=1;fillColor=#fff2cc;strokeColor=#d6b656;" parent="1" vertex="1">
          <mxGeometry x="740" y="108.75" width="120" height="37.5" as="geometry" />
        </mxCell>
        <mxCell id="sWIOzSoLqstiNpKyMAqf-98" style="edgeStyle=orthogonalEdgeStyle;rounded=0;orthogonalLoop=1;jettySize=auto;html=1;entryX=0;entryY=0.5;entryDx=0;entryDy=0;" parent="1" source="sWIOzSoLqstiNpKyMAqf-90" target="sWIOzSoLqstiNpKyMAqf-94" edge="1">
          <mxGeometry relative="1" as="geometry" />
        </mxCell>
        <mxCell id="sWIOzSoLqstiNpKyMAqf-104" value="True" style="edgeStyle=orthogonalEdgeStyle;rounded=0;orthogonalLoop=1;jettySize=auto;html=1;entryX=0.5;entryY=0;entryDx=0;entryDy=0;" parent="1" source="sWIOzSoLqstiNpKyMAqf-90" target="sWIOzSoLqstiNpKyMAqf-110" edge="1">
          <mxGeometry relative="1" as="geometry">
            <mxPoint x="1175" y="190" as="targetPoint" />
          </mxGeometry>
        </mxCell>
        <mxCell id="sWIOzSoLqstiNpKyMAqf-90" value="&lt;br&gt;Widget image button: &quot;Drinks&quot;" style="shape=parallelogram;perimeter=parallelogramPerimeter;whiteSpace=wrap;html=1;fixedSize=1;fillColor=#dae8fc;strokeColor=#6c8ebf;" parent="1" vertex="1">
          <mxGeometry x="1100" y="97.5" width="150" height="60" as="geometry" />
        </mxCell>
        <mxCell id="sWIOzSoLqstiNpKyMAqf-93" style="edgeStyle=orthogonalEdgeStyle;rounded=0;orthogonalLoop=1;jettySize=auto;html=1;" parent="1" source="sWIOzSoLqstiNpKyMAqf-91" target="sWIOzSoLqstiNpKyMAqf-90" edge="1">
          <mxGeometry relative="1" as="geometry" />
        </mxCell>
        <mxCell id="sWIOzSoLqstiNpKyMAqf-91" value="Widget label:&lt;br&gt;Select your order." style="shape=parallelogram;perimeter=parallelogramPerimeter;whiteSpace=wrap;html=1;fixedSize=1;fillColor=#1ba1e2;strokeColor=#006EAF;fontColor=#ffffff;" parent="1" vertex="1">
          <mxGeometry x="910" y="97.5" width="150" height="60" as="geometry" />
        </mxCell>
        <mxCell id="sWIOzSoLqstiNpKyMAqf-99" style="edgeStyle=orthogonalEdgeStyle;rounded=0;orthogonalLoop=1;jettySize=auto;html=1;" parent="1" source="sWIOzSoLqstiNpKyMAqf-94" target="sWIOzSoLqstiNpKyMAqf-95" edge="1">
          <mxGeometry relative="1" as="geometry" />
        </mxCell>
        <mxCell id="sWIOzSoLqstiNpKyMAqf-105" value="True" style="edgeStyle=orthogonalEdgeStyle;rounded=0;orthogonalLoop=1;jettySize=auto;html=1;" parent="1" source="sWIOzSoLqstiNpKyMAqf-94" target="sWIOzSoLqstiNpKyMAqf-111" edge="1">
          <mxGeometry relative="1" as="geometry">
            <mxPoint x="1355" y="190" as="targetPoint" />
          </mxGeometry>
        </mxCell>
        <mxCell id="sWIOzSoLqstiNpKyMAqf-94" value="Widget Image&lt;br style=&quot;border-color: var(--border-color);&quot;&gt;button:&quot;Lunch&quot;" style="shape=parallelogram;perimeter=parallelogramPerimeter;whiteSpace=wrap;html=1;fixedSize=1;fillColor=#dae8fc;strokeColor=#6c8ebf;" parent="1" vertex="1">
          <mxGeometry x="1280" y="97.5" width="150" height="60" as="geometry" />
        </mxCell>
        <mxCell id="sWIOzSoLqstiNpKyMAqf-100" style="edgeStyle=orthogonalEdgeStyle;rounded=0;orthogonalLoop=1;jettySize=auto;html=1;" parent="1" source="sWIOzSoLqstiNpKyMAqf-95" target="sWIOzSoLqstiNpKyMAqf-96" edge="1">
          <mxGeometry relative="1" as="geometry" />
        </mxCell>
        <mxCell id="sWIOzSoLqstiNpKyMAqf-106" value="True" style="edgeStyle=orthogonalEdgeStyle;rounded=0;orthogonalLoop=1;jettySize=auto;html=1;entryX=0.5;entryY=0;entryDx=0;entryDy=0;" parent="1" source="sWIOzSoLqstiNpKyMAqf-95" target="sWIOzSoLqstiNpKyMAqf-112" edge="1">
          <mxGeometry relative="1" as="geometry">
            <mxPoint x="1525" y="190" as="targetPoint" />
          </mxGeometry>
        </mxCell>
        <mxCell id="sWIOzSoLqstiNpKyMAqf-95" value="Widget Image&lt;br style=&quot;border-color: var(--border-color);&quot;&gt;button:&quot;Snacks&quot;" style="shape=parallelogram;perimeter=parallelogramPerimeter;whiteSpace=wrap;html=1;fixedSize=1;fillColor=#dae8fc;strokeColor=#6c8ebf;" parent="1" vertex="1">
          <mxGeometry x="1450" y="97.5" width="150" height="60" as="geometry" />
        </mxCell>
        <mxCell id="sWIOzSoLqstiNpKyMAqf-101" style="edgeStyle=orthogonalEdgeStyle;rounded=0;orthogonalLoop=1;jettySize=auto;html=1;" parent="1" source="sWIOzSoLqstiNpKyMAqf-96" target="sWIOzSoLqstiNpKyMAqf-97" edge="1">
          <mxGeometry relative="1" as="geometry" />
        </mxCell>
        <mxCell id="sWIOzSoLqstiNpKyMAqf-107" value="True" style="edgeStyle=orthogonalEdgeStyle;rounded=0;orthogonalLoop=1;jettySize=auto;html=1;entryX=0.5;entryY=0;entryDx=0;entryDy=0;" parent="1" source="sWIOzSoLqstiNpKyMAqf-96" target="sWIOzSoLqstiNpKyMAqf-113" edge="1">
          <mxGeometry relative="1" as="geometry">
            <mxPoint x="1695" y="190" as="targetPoint" />
          </mxGeometry>
        </mxCell>
        <mxCell id="sWIOzSoLqstiNpKyMAqf-96" value="Widget Image&lt;br style=&quot;border-color: var(--border-color);&quot;&gt;button:&quot;frozen&quot;" style="shape=parallelogram;perimeter=parallelogramPerimeter;whiteSpace=wrap;html=1;fixedSize=1;fillColor=#dae8fc;strokeColor=#6c8ebf;" parent="1" vertex="1">
          <mxGeometry x="1620" y="97.5" width="150" height="60" as="geometry" />
        </mxCell>
        <mxCell id="sWIOzSoLqstiNpKyMAqf-103" style="edgeStyle=orthogonalEdgeStyle;rounded=0;orthogonalLoop=1;jettySize=auto;html=1;" parent="1" source="sWIOzSoLqstiNpKyMAqf-97" target="sWIOzSoLqstiNpKyMAqf-102" edge="1">
          <mxGeometry relative="1" as="geometry" />
        </mxCell>
        <mxCell id="sWIOzSoLqstiNpKyMAqf-108" value="True" style="edgeStyle=orthogonalEdgeStyle;rounded=0;orthogonalLoop=1;jettySize=auto;html=1;entryX=0.5;entryY=0;entryDx=0;entryDy=0;" parent="1" source="sWIOzSoLqstiNpKyMAqf-97" target="sWIOzSoLqstiNpKyMAqf-114" edge="1">
          <mxGeometry relative="1" as="geometry">
            <mxPoint x="1885" y="200" as="targetPoint" />
          </mxGeometry>
        </mxCell>
        <mxCell id="sWIOzSoLqstiNpKyMAqf-97" value="&lt;br&gt;Widget button:&lt;br&gt;&quot;View order&quot;" style="shape=parallelogram;perimeter=parallelogramPerimeter;whiteSpace=wrap;html=1;fixedSize=1;fillColor=#dae8fc;strokeColor=#6c8ebf;" parent="1" vertex="1">
          <mxGeometry x="1790" y="97.5" width="130" height="60" as="geometry" />
        </mxCell>
        <mxCell id="OTEhBvLuvYDjkORVpGY_-1" style="edgeStyle=orthogonalEdgeStyle;rounded=0;orthogonalLoop=1;jettySize=auto;html=1;" parent="1" source="sWIOzSoLqstiNpKyMAqf-102" target="sWIOzSoLqstiNpKyMAqf-230" edge="1">
          <mxGeometry relative="1" as="geometry" />
        </mxCell>
        <mxCell id="OTEhBvLuvYDjkORVpGY_-3" value="True" style="edgeStyle=orthogonalEdgeStyle;rounded=0;orthogonalLoop=1;jettySize=auto;html=1;entryX=0.5;entryY=0;entryDx=0;entryDy=0;" parent="1" source="sWIOzSoLqstiNpKyMAqf-102" target="sWIOzSoLqstiNpKyMAqf-115" edge="1">
          <mxGeometry relative="1" as="geometry" />
        </mxCell>
        <mxCell id="sWIOzSoLqstiNpKyMAqf-102" value="Widget button:&lt;br&gt;&quot;Cancel order&quot;" style="shape=parallelogram;perimeter=parallelogramPerimeter;whiteSpace=wrap;html=1;fixedSize=1;fillColor=#dae8fc;strokeColor=#6c8ebf;" parent="1" vertex="1">
          <mxGeometry x="1942.5" y="97.5" width="147.5" height="60" as="geometry" />
        </mxCell>
        <mxCell id="sWIOzSoLqstiNpKyMAqf-117" style="edgeStyle=orthogonalEdgeStyle;rounded=0;orthogonalLoop=1;jettySize=auto;html=1;" parent="1" source="sWIOzSoLqstiNpKyMAqf-110" target="sWIOzSoLqstiNpKyMAqf-116" edge="1">
          <mxGeometry relative="1" as="geometry" />
        </mxCell>
        <mxCell id="sWIOzSoLqstiNpKyMAqf-110" value="Run frame_3&lt;br&gt;function" style="rounded=0;whiteSpace=wrap;html=1;fillColor=#d5e8d4;strokeColor=#82b366;" parent="1" vertex="1">
          <mxGeometry x="1115" y="200" width="120" height="60" as="geometry" />
        </mxCell>
        <mxCell id="sWIOzSoLqstiNpKyMAqf-125" style="edgeStyle=orthogonalEdgeStyle;rounded=0;orthogonalLoop=1;jettySize=auto;html=1;entryX=0.5;entryY=0;entryDx=0;entryDy=0;" parent="1" source="sWIOzSoLqstiNpKyMAqf-111" target="sWIOzSoLqstiNpKyMAqf-118" edge="1">
          <mxGeometry relative="1" as="geometry" />
        </mxCell>
        <mxCell id="sWIOzSoLqstiNpKyMAqf-111" value="Run frame_4&lt;br&gt;function" style="rounded=0;whiteSpace=wrap;html=1;fillColor=#d5e8d4;strokeColor=#82b366;" parent="1" vertex="1">
          <mxGeometry x="1295" y="200" width="120" height="60" as="geometry" />
        </mxCell>
        <mxCell id="sWIOzSoLqstiNpKyMAqf-126" style="edgeStyle=orthogonalEdgeStyle;rounded=0;orthogonalLoop=1;jettySize=auto;html=1;" parent="1" source="sWIOzSoLqstiNpKyMAqf-112" target="sWIOzSoLqstiNpKyMAqf-119" edge="1">
          <mxGeometry relative="1" as="geometry" />
        </mxCell>
        <mxCell id="sWIOzSoLqstiNpKyMAqf-112" value="Run frame_5&lt;br&gt;&amp;nbsp;function" style="rounded=0;whiteSpace=wrap;html=1;fillColor=#d5e8d4;strokeColor=#82b366;" parent="1" vertex="1">
          <mxGeometry x="1465" y="200" width="120" height="60" as="geometry" />
        </mxCell>
        <mxCell id="sWIOzSoLqstiNpKyMAqf-127" style="edgeStyle=orthogonalEdgeStyle;rounded=0;orthogonalLoop=1;jettySize=auto;html=1;entryX=0.5;entryY=0;entryDx=0;entryDy=0;" parent="1" source="sWIOzSoLqstiNpKyMAqf-113" target="sWIOzSoLqstiNpKyMAqf-120" edge="1">
          <mxGeometry relative="1" as="geometry" />
        </mxCell>
        <mxCell id="sWIOzSoLqstiNpKyMAqf-113" value="Run frame_6&lt;br&gt;function" style="rounded=0;whiteSpace=wrap;html=1;fillColor=#d5e8d4;strokeColor=#82b366;" parent="1" vertex="1">
          <mxGeometry x="1635" y="200" width="120" height="60" as="geometry" />
        </mxCell>
        <mxCell id="sWIOzSoLqstiNpKyMAqf-124" style="edgeStyle=orthogonalEdgeStyle;rounded=0;orthogonalLoop=1;jettySize=auto;html=1;" parent="1" source="sWIOzSoLqstiNpKyMAqf-114" target="sWIOzSoLqstiNpKyMAqf-121" edge="1">
          <mxGeometry relative="1" as="geometry" />
        </mxCell>
        <mxCell id="sWIOzSoLqstiNpKyMAqf-114" value="Run view_order&lt;br&gt;function" style="rounded=0;whiteSpace=wrap;html=1;fillColor=#d5e8d4;strokeColor=#82b366;" parent="1" vertex="1">
          <mxGeometry x="1795" y="200" width="120" height="60" as="geometry" />
        </mxCell>
        <mxCell id="sWIOzSoLqstiNpKyMAqf-123" style="edgeStyle=orthogonalEdgeStyle;rounded=0;orthogonalLoop=1;jettySize=auto;html=1;" parent="1" source="sWIOzSoLqstiNpKyMAqf-115" target="sWIOzSoLqstiNpKyMAqf-122" edge="1">
          <mxGeometry relative="1" as="geometry" />
        </mxCell>
        <mxCell id="sWIOzSoLqstiNpKyMAqf-115" value="Run cancel_order&lt;br&gt;function" style="rounded=0;whiteSpace=wrap;html=1;fillColor=#d5e8d4;strokeColor=#82b366;" parent="1" vertex="1">
          <mxGeometry x="1956.25" y="191.88" width="120" height="60" as="geometry" />
        </mxCell>
        <mxCell id="sWIOzSoLqstiNpKyMAqf-116" value="End" style="rounded=1;whiteSpace=wrap;html=1;fillColor=#fff2cc;strokeColor=#d6b656;" parent="1" vertex="1">
          <mxGeometry x="1115" y="290" width="120" height="30" as="geometry" />
        </mxCell>
        <mxCell id="sWIOzSoLqstiNpKyMAqf-118" value="End" style="rounded=1;whiteSpace=wrap;html=1;fillColor=#fff2cc;strokeColor=#d6b656;" parent="1" vertex="1">
          <mxGeometry x="1295" y="290" width="120" height="30" as="geometry" />
        </mxCell>
        <mxCell id="sWIOzSoLqstiNpKyMAqf-119" value="End" style="rounded=1;whiteSpace=wrap;html=1;fillColor=#fff2cc;strokeColor=#d6b656;" parent="1" vertex="1">
          <mxGeometry x="1465" y="290" width="120" height="30" as="geometry" />
        </mxCell>
        <mxCell id="sWIOzSoLqstiNpKyMAqf-120" value="End" style="rounded=1;whiteSpace=wrap;html=1;fillColor=#fff2cc;strokeColor=#d6b656;" parent="1" vertex="1">
          <mxGeometry x="1635" y="290" width="120" height="30" as="geometry" />
        </mxCell>
        <mxCell id="sWIOzSoLqstiNpKyMAqf-121" value="End" style="rounded=1;whiteSpace=wrap;html=1;fillColor=#fff2cc;strokeColor=#d6b656;" parent="1" vertex="1">
          <mxGeometry x="1795" y="290" width="120" height="30" as="geometry" />
        </mxCell>
        <mxCell id="sWIOzSoLqstiNpKyMAqf-122" value="End" style="rounded=1;whiteSpace=wrap;html=1;fillColor=#fff2cc;strokeColor=#d6b656;" parent="1" vertex="1">
          <mxGeometry x="1956.25" y="281.88" width="120" height="30" as="geometry" />
        </mxCell>
        <mxCell id="sWIOzSoLqstiNpKyMAqf-130" style="edgeStyle=orthogonalEdgeStyle;rounded=0;orthogonalLoop=1;jettySize=auto;html=1;" parent="1" source="sWIOzSoLqstiNpKyMAqf-128" target="sWIOzSoLqstiNpKyMAqf-129" edge="1">
          <mxGeometry relative="1" as="geometry" />
        </mxCell>
        <mxCell id="sWIOzSoLqstiNpKyMAqf-128" value="Start&lt;br&gt;(Frame_3(Drinks))" style="rounded=1;whiteSpace=wrap;html=1;fillColor=#fff2cc;strokeColor=#d6b656;" parent="1" vertex="1">
          <mxGeometry x="755" y="1013.1300000000001" width="120" height="37.5" as="geometry" />
        </mxCell>
        <mxCell id="sWIOzSoLqstiNpKyMAqf-134" style="edgeStyle=orthogonalEdgeStyle;rounded=0;orthogonalLoop=1;jettySize=auto;html=1;" parent="1" source="sWIOzSoLqstiNpKyMAqf-129" target="sWIOzSoLqstiNpKyMAqf-135" edge="1">
          <mxGeometry relative="1" as="geometry">
            <mxPoint x="1056.0100000000002" y="1031.85" as="targetPoint" />
          </mxGeometry>
        </mxCell>
        <mxCell id="sWIOzSoLqstiNpKyMAqf-129" value="Create &quot;track_var&quot; list and spin box lists, drink list&lt;br&gt;and frame3 and geometry size&lt;br&gt;global lists" style="rounded=0;whiteSpace=wrap;html=1;fillColor=#d5e8d4;strokeColor=#82b366;" parent="1" vertex="1">
          <mxGeometry x="905" y="980" width="120" height="103.75" as="geometry" />
        </mxCell>
        <mxCell id="sWIOzSoLqstiNpKyMAqf-141" style="edgeStyle=orthogonalEdgeStyle;rounded=0;orthogonalLoop=1;jettySize=auto;html=1;entryX=0;entryY=0.5;entryDx=0;entryDy=0;" parent="1" source="sWIOzSoLqstiNpKyMAqf-135" target="sWIOzSoLqstiNpKyMAqf-136" edge="1">
          <mxGeometry relative="1" as="geometry" />
        </mxCell>
        <mxCell id="sWIOzSoLqstiNpKyMAqf-167" value="True" style="edgeStyle=orthogonalEdgeStyle;rounded=0;orthogonalLoop=1;jettySize=auto;html=1;entryX=0.5;entryY=0;entryDx=0;entryDy=0;" parent="1" source="sWIOzSoLqstiNpKyMAqf-135" target="sWIOzSoLqstiNpKyMAqf-164" edge="1">
          <mxGeometry relative="1" as="geometry" />
        </mxCell>
        <mxCell id="sWIOzSoLqstiNpKyMAqf-135" value="Widget checkbox:&lt;br&gt;For loop drinks" style="shape=parallelogram;perimeter=parallelogramPerimeter;whiteSpace=wrap;html=1;fixedSize=1;fillColor=#dae8fc;strokeColor=#6c8ebf;" parent="1" vertex="1">
          <mxGeometry x="1055" y="1001.8800000000001" width="150" height="60" as="geometry" />
        </mxCell>
        <mxCell id="sWIOzSoLqstiNpKyMAqf-140" value="True" style="edgeStyle=orthogonalEdgeStyle;rounded=0;orthogonalLoop=1;jettySize=auto;html=1;" parent="1" source="sWIOzSoLqstiNpKyMAqf-169" target="sWIOzSoLqstiNpKyMAqf-139" edge="1">
          <mxGeometry relative="1" as="geometry" />
        </mxCell>
        <mxCell id="sWIOzSoLqstiNpKyMAqf-171" style="edgeStyle=orthogonalEdgeStyle;rounded=0;orthogonalLoop=1;jettySize=auto;html=1;" parent="1" source="sWIOzSoLqstiNpKyMAqf-136" target="sWIOzSoLqstiNpKyMAqf-169" edge="1">
          <mxGeometry relative="1" as="geometry" />
        </mxCell>
        <mxCell id="pjii15zYUNtUu0hRlOJG-56" style="edgeStyle=orthogonalEdgeStyle;rounded=0;orthogonalLoop=1;jettySize=auto;html=1;entryX=0;entryY=0.5;entryDx=0;entryDy=0;" parent="1" source="sWIOzSoLqstiNpKyMAqf-136" target="pjii15zYUNtUu0hRlOJG-55" edge="1">
          <mxGeometry relative="1" as="geometry" />
        </mxCell>
        <mxCell id="sWIOzSoLqstiNpKyMAqf-136" value="Widget for loop spin&lt;br&gt;box" style="shape=parallelogram;perimeter=parallelogramPerimeter;whiteSpace=wrap;html=1;fixedSize=1;fillColor=#dae8fc;strokeColor=#6c8ebf;" parent="1" vertex="1">
          <mxGeometry x="1225" y="1001.8800000000001" width="150" height="60" as="geometry" />
        </mxCell>
        <mxCell id="sWIOzSoLqstiNpKyMAqf-137" value="&amp;nbsp;store 1&amp;nbsp;&lt;br&gt;into track_var" style="rounded=0;whiteSpace=wrap;html=1;fillColor=#d5e8d4;strokeColor=#82b366;" parent="1" vertex="1">
          <mxGeometry x="1070" y="1223.75" width="120" height="60" as="geometry" />
        </mxCell>
        <mxCell id="sWIOzSoLqstiNpKyMAqf-139" value="Store spinbox number in track_spinbox" style="rounded=0;whiteSpace=wrap;html=1;fillColor=#d5e8d4;strokeColor=#82b366;" parent="1" vertex="1">
          <mxGeometry x="1240" y="1223.75" width="120" height="60" as="geometry" />
        </mxCell>
        <mxCell id="sWIOzSoLqstiNpKyMAqf-145" style="edgeStyle=orthogonalEdgeStyle;rounded=0;orthogonalLoop=1;jettySize=auto;html=1;" parent="1" source="sWIOzSoLqstiNpKyMAqf-142" target="sWIOzSoLqstiNpKyMAqf-144" edge="1">
          <mxGeometry relative="1" as="geometry" />
        </mxCell>
        <mxCell id="sWIOzSoLqstiNpKyMAqf-149" value="True" style="edgeStyle=orthogonalEdgeStyle;rounded=0;orthogonalLoop=1;jettySize=auto;html=1;entryX=0.5;entryY=0;entryDx=0;entryDy=0;" parent="1" source="sWIOzSoLqstiNpKyMAqf-142" target="sWIOzSoLqstiNpKyMAqf-148" edge="1">
          <mxGeometry relative="1" as="geometry" />
        </mxCell>
        <mxCell id="sWIOzSoLqstiNpKyMAqf-142" value="Widget button:&lt;br&gt;&quot;Add order&quot;" style="shape=parallelogram;perimeter=parallelogramPerimeter;whiteSpace=wrap;html=1;fixedSize=1;fillColor=#dae8fc;strokeColor=#6c8ebf;" parent="1" vertex="1">
          <mxGeometry x="1585" y="1001.8800000000001" width="150" height="60" as="geometry" />
        </mxCell>
        <mxCell id="sWIOzSoLqstiNpKyMAqf-147" style="edgeStyle=orthogonalEdgeStyle;rounded=0;orthogonalLoop=1;jettySize=auto;html=1;" parent="1" source="sWIOzSoLqstiNpKyMAqf-144" target="sWIOzSoLqstiNpKyMAqf-146" edge="1">
          <mxGeometry relative="1" as="geometry" />
        </mxCell>
        <mxCell id="sWIOzSoLqstiNpKyMAqf-151" value="True" style="edgeStyle=orthogonalEdgeStyle;rounded=0;orthogonalLoop=1;jettySize=auto;html=1;" parent="1" source="sWIOzSoLqstiNpKyMAqf-144" target="sWIOzSoLqstiNpKyMAqf-150" edge="1">
          <mxGeometry relative="1" as="geometry" />
        </mxCell>
        <mxCell id="sWIOzSoLqstiNpKyMAqf-144" value="Widget button:&lt;br&gt;&quot;Remove order&quot;" style="shape=parallelogram;perimeter=parallelogramPerimeter;whiteSpace=wrap;html=1;fixedSize=1;fillColor=#dae8fc;strokeColor=#6c8ebf;" parent="1" vertex="1">
          <mxGeometry x="1755" y="1001.8800000000001" width="150" height="60" as="geometry" />
        </mxCell>
        <mxCell id="sWIOzSoLqstiNpKyMAqf-153" value="True" style="edgeStyle=orthogonalEdgeStyle;rounded=0;orthogonalLoop=1;jettySize=auto;html=1;entryX=0.5;entryY=0;entryDx=0;entryDy=0;" parent="1" source="sWIOzSoLqstiNpKyMAqf-146" target="sWIOzSoLqstiNpKyMAqf-152" edge="1">
          <mxGeometry relative="1" as="geometry" />
        </mxCell>
        <mxCell id="cWhjbkL9U8iKRouWhas2-127" style="edgeStyle=orthogonalEdgeStyle;rounded=0;orthogonalLoop=1;jettySize=auto;html=1;" edge="1" parent="1" source="sWIOzSoLqstiNpKyMAqf-146" target="cWhjbkL9U8iKRouWhas2-125">
          <mxGeometry relative="1" as="geometry" />
        </mxCell>
        <mxCell id="sWIOzSoLqstiNpKyMAqf-146" value="Widget button:&lt;br&gt;&quot;Back to menu&quot;" style="shape=parallelogram;perimeter=parallelogramPerimeter;whiteSpace=wrap;html=1;fixedSize=1;fillColor=#dae8fc;strokeColor=#6c8ebf;" parent="1" vertex="1">
          <mxGeometry x="1930" y="1001.8800000000001" width="150" height="60" as="geometry" />
        </mxCell>
        <mxCell id="sWIOzSoLqstiNpKyMAqf-186" style="edgeStyle=orthogonalEdgeStyle;rounded=0;orthogonalLoop=1;jettySize=auto;html=1;entryX=0.5;entryY=0;entryDx=0;entryDy=0;" parent="1" source="sWIOzSoLqstiNpKyMAqf-148" target="sWIOzSoLqstiNpKyMAqf-185" edge="1">
          <mxGeometry relative="1" as="geometry" />
        </mxCell>
        <mxCell id="sWIOzSoLqstiNpKyMAqf-148" value="Run add_ord function" style="rounded=0;whiteSpace=wrap;html=1;fillColor=#d5e8d4;strokeColor=#82b366;" parent="1" vertex="1">
          <mxGeometry x="1600" y="1098.13" width="120" height="60" as="geometry" />
        </mxCell>
        <mxCell id="sWIOzSoLqstiNpKyMAqf-188" style="edgeStyle=orthogonalEdgeStyle;rounded=0;orthogonalLoop=1;jettySize=auto;html=1;entryX=0.5;entryY=0;entryDx=0;entryDy=0;" parent="1" source="sWIOzSoLqstiNpKyMAqf-150" target="sWIOzSoLqstiNpKyMAqf-187" edge="1">
          <mxGeometry relative="1" as="geometry" />
        </mxCell>
        <mxCell id="sWIOzSoLqstiNpKyMAqf-150" value="Run remove_order&lt;br&gt;function" style="rounded=0;whiteSpace=wrap;html=1;fillColor=#d5e8d4;strokeColor=#82b366;" parent="1" vertex="1">
          <mxGeometry x="1770" y="1100" width="120" height="60" as="geometry" />
        </mxCell>
        <mxCell id="sWIOzSoLqstiNpKyMAqf-190" style="edgeStyle=orthogonalEdgeStyle;rounded=0;orthogonalLoop=1;jettySize=auto;html=1;entryX=0.5;entryY=0;entryDx=0;entryDy=0;" parent="1" source="sWIOzSoLqstiNpKyMAqf-152" target="sWIOzSoLqstiNpKyMAqf-189" edge="1">
          <mxGeometry relative="1" as="geometry" />
        </mxCell>
        <mxCell id="sWIOzSoLqstiNpKyMAqf-152" value="Run frame2&lt;br&gt;function" style="rounded=0;whiteSpace=wrap;html=1;fillColor=#d5e8d4;strokeColor=#82b366;" parent="1" vertex="1">
          <mxGeometry x="1945" y="1102.5" width="120" height="60" as="geometry" />
        </mxCell>
        <mxCell id="sWIOzSoLqstiNpKyMAqf-168" value="True" style="edgeStyle=orthogonalEdgeStyle;rounded=0;orthogonalLoop=1;jettySize=auto;html=1;" parent="1" source="sWIOzSoLqstiNpKyMAqf-164" target="sWIOzSoLqstiNpKyMAqf-137" edge="1">
          <mxGeometry relative="1" as="geometry" />
        </mxCell>
        <mxCell id="sWIOzSoLqstiNpKyMAqf-172" value="False" style="edgeStyle=orthogonalEdgeStyle;rounded=0;orthogonalLoop=1;jettySize=auto;html=1;" parent="1" source="sWIOzSoLqstiNpKyMAqf-164" target="sWIOzSoLqstiNpKyMAqf-128" edge="1">
          <mxGeometry relative="1" as="geometry" />
        </mxCell>
        <mxCell id="sWIOzSoLqstiNpKyMAqf-164" value="If user has&lt;br&gt;checked&lt;br&gt;the checkbox" style="rhombus;whiteSpace=wrap;html=1;fillColor=#f8cecc;strokeColor=#b85450;" parent="1" vertex="1">
          <mxGeometry x="1075" y="1098.13" width="110" height="90" as="geometry" />
        </mxCell>
        <mxCell id="sWIOzSoLqstiNpKyMAqf-173" value="False" style="edgeStyle=orthogonalEdgeStyle;rounded=0;orthogonalLoop=1;jettySize=auto;html=1;" parent="1" source="sWIOzSoLqstiNpKyMAqf-169" target="sWIOzSoLqstiNpKyMAqf-128" edge="1">
          <mxGeometry relative="1" as="geometry">
            <Array as="points">
              <mxPoint x="1395" y="1144.75" />
              <mxPoint x="1395" y="1313.75" />
              <mxPoint x="815" y="1313.75" />
            </Array>
          </mxGeometry>
        </mxCell>
        <mxCell id="sWIOzSoLqstiNpKyMAqf-169" value="If user has check the box" style="rhombus;whiteSpace=wrap;html=1;fillColor=#f8cecc;strokeColor=#b85450;" parent="1" vertex="1">
          <mxGeometry x="1245" y="1100" width="110" height="90" as="geometry" />
        </mxCell>
        <mxCell id="sWIOzSoLqstiNpKyMAqf-185" value="End" style="rounded=1;whiteSpace=wrap;html=1;fillColor=#fff2cc;strokeColor=#d6b656;" parent="1" vertex="1">
          <mxGeometry x="1600" y="1188.13" width="120" height="30" as="geometry" />
        </mxCell>
        <mxCell id="sWIOzSoLqstiNpKyMAqf-187" value="End" style="rounded=1;whiteSpace=wrap;html=1;fillColor=#fff2cc;strokeColor=#d6b656;" parent="1" vertex="1">
          <mxGeometry x="1770" y="1188.13" width="120" height="30" as="geometry" />
        </mxCell>
        <mxCell id="sWIOzSoLqstiNpKyMAqf-189" value="End" style="rounded=1;whiteSpace=wrap;html=1;fillColor=#fff2cc;strokeColor=#d6b656;" parent="1" vertex="1">
          <mxGeometry x="1945" y="1193.75" width="120" height="30" as="geometry" />
        </mxCell>
        <mxCell id="sWIOzSoLqstiNpKyMAqf-191" style="edgeStyle=orthogonalEdgeStyle;rounded=0;orthogonalLoop=1;jettySize=auto;html=1;" parent="1" source="sWIOzSoLqstiNpKyMAqf-192" target="sWIOzSoLqstiNpKyMAqf-197" edge="1">
          <mxGeometry relative="1" as="geometry" />
        </mxCell>
        <mxCell id="sWIOzSoLqstiNpKyMAqf-192" value="Start&lt;br&gt;(View order function)" style="rounded=1;whiteSpace=wrap;html=1;fillColor=#fff2cc;strokeColor=#d6b656;" parent="1" vertex="1">
          <mxGeometry x="2450" y="108.13" width="120" height="37.5" as="geometry" />
        </mxCell>
        <mxCell id="sWIOzSoLqstiNpKyMAqf-193" style="edgeStyle=orthogonalEdgeStyle;rounded=0;orthogonalLoop=1;jettySize=auto;html=1;" parent="1" source="sWIOzSoLqstiNpKyMAqf-197" target="sWIOzSoLqstiNpKyMAqf-199" edge="1">
          <mxGeometry relative="1" as="geometry">
            <mxPoint x="2770" y="126.88" as="targetPoint" />
          </mxGeometry>
        </mxCell>
        <mxCell id="sWIOzSoLqstiNpKyMAqf-194" value="True" style="edgeLabel;html=1;align=center;verticalAlign=middle;resizable=0;points=[];" parent="sWIOzSoLqstiNpKyMAqf-193" vertex="1" connectable="0">
          <mxGeometry x="-0.6085" y="-1" relative="1" as="geometry">
            <mxPoint x="10" y="-1" as="offset" />
          </mxGeometry>
        </mxCell>
        <mxCell id="sWIOzSoLqstiNpKyMAqf-195" style="edgeStyle=orthogonalEdgeStyle;rounded=0;orthogonalLoop=1;jettySize=auto;html=1;" parent="1" source="sWIOzSoLqstiNpKyMAqf-197" target="sWIOzSoLqstiNpKyMAqf-201" edge="1">
          <mxGeometry relative="1" as="geometry" />
        </mxCell>
        <mxCell id="sWIOzSoLqstiNpKyMAqf-196" value="False" style="edgeLabel;html=1;align=center;verticalAlign=middle;resizable=0;points=[];" parent="sWIOzSoLqstiNpKyMAqf-195" vertex="1" connectable="0">
          <mxGeometry x="-0.3478" y="-2" relative="1" as="geometry">
            <mxPoint as="offset" />
          </mxGeometry>
        </mxCell>
        <mxCell id="sWIOzSoLqstiNpKyMAqf-197" value="If sum_1 &amp;gt;0&lt;br&gt;(total cost)" style="rhombus;whiteSpace=wrap;html=1;fillColor=#f8cecc;strokeColor=#b85450;" parent="1" vertex="1">
          <mxGeometry x="2609" y="81.88" width="110" height="90" as="geometry" />
        </mxCell>
        <mxCell id="sWIOzSoLqstiNpKyMAqf-198" style="edgeStyle=orthogonalEdgeStyle;rounded=0;orthogonalLoop=1;jettySize=auto;html=1;" parent="1" source="sWIOzSoLqstiNpKyMAqf-199" target="sWIOzSoLqstiNpKyMAqf-203" edge="1">
          <mxGeometry relative="1" as="geometry" />
        </mxCell>
        <mxCell id="sWIOzSoLqstiNpKyMAqf-199" value="Messagebox:&lt;br&gt;For loop display&lt;br&gt;order and sum-1" style="shape=parallelogram;perimeter=parallelogramPerimeter;whiteSpace=wrap;html=1;fixedSize=1;fillColor=#1ba1e2;strokeColor=#006EAF;fontColor=#ffffff;" parent="1" vertex="1">
          <mxGeometry x="2765" y="96.88" width="150" height="60" as="geometry" />
        </mxCell>
        <mxCell id="sWIOzSoLqstiNpKyMAqf-200" style="edgeStyle=orthogonalEdgeStyle;rounded=0;orthogonalLoop=1;jettySize=auto;html=1;entryX=0.5;entryY=0;entryDx=0;entryDy=0;" parent="1" source="sWIOzSoLqstiNpKyMAqf-201" target="sWIOzSoLqstiNpKyMAqf-202" edge="1">
          <mxGeometry relative="1" as="geometry" />
        </mxCell>
        <mxCell id="sWIOzSoLqstiNpKyMAqf-201" value="Messagebox:&lt;br&gt;&quot;Please make an order&quot;" style="shape=parallelogram;perimeter=parallelogramPerimeter;whiteSpace=wrap;html=1;fixedSize=1;fillColor=#1ba1e2;strokeColor=#006EAF;fontColor=#ffffff;" parent="1" vertex="1">
          <mxGeometry x="2589" y="211.88" width="150" height="60" as="geometry" />
        </mxCell>
        <mxCell id="sWIOzSoLqstiNpKyMAqf-202" value="End" style="rounded=1;whiteSpace=wrap;html=1;fillColor=#fff2cc;strokeColor=#d6b656;" parent="1" vertex="1">
          <mxGeometry x="2604" y="311.88" width="120" height="30" as="geometry" />
        </mxCell>
        <mxCell id="sWIOzSoLqstiNpKyMAqf-203" value="End" style="rounded=1;whiteSpace=wrap;html=1;fillColor=#fff2cc;strokeColor=#d6b656;" parent="1" vertex="1">
          <mxGeometry x="2940" y="111.88" width="120" height="30" as="geometry" />
        </mxCell>
        <mxCell id="sWIOzSoLqstiNpKyMAqf-205" style="edgeStyle=orthogonalEdgeStyle;rounded=0;orthogonalLoop=1;jettySize=auto;html=1;" parent="1" source="sWIOzSoLqstiNpKyMAqf-206" target="sWIOzSoLqstiNpKyMAqf-213" edge="1">
          <mxGeometry relative="1" as="geometry" />
        </mxCell>
        <mxCell id="sWIOzSoLqstiNpKyMAqf-206" value="Start&lt;br&gt;(Checkout function)" style="rounded=1;whiteSpace=wrap;html=1;fillColor=#fff2cc;strokeColor=#d6b656;" parent="1" vertex="1">
          <mxGeometry x="2430" y="374.38" width="120" height="37.5" as="geometry" />
        </mxCell>
        <mxCell id="sWIOzSoLqstiNpKyMAqf-207" style="edgeStyle=orthogonalEdgeStyle;rounded=0;orthogonalLoop=1;jettySize=auto;html=1;entryX=0.5;entryY=0;entryDx=0;entryDy=0;" parent="1" source="sWIOzSoLqstiNpKyMAqf-208" target="sWIOzSoLqstiNpKyMAqf-209" edge="1">
          <mxGeometry relative="1" as="geometry" />
        </mxCell>
        <mxCell id="sWIOzSoLqstiNpKyMAqf-208" value="Run view order&lt;br&gt;function" style="rounded=0;whiteSpace=wrap;html=1;fillColor=#d5e8d4;strokeColor=#82b366;" parent="1" vertex="1">
          <mxGeometry x="2770" y="350.63" width="120" height="87.5" as="geometry" />
        </mxCell>
        <mxCell id="sWIOzSoLqstiNpKyMAqf-209" value="Messagebox:&lt;br&gt;&quot;Please collect&lt;br&gt;your order at cafe&quot;" style="shape=parallelogram;perimeter=parallelogramPerimeter;whiteSpace=wrap;html=1;fixedSize=1;fillColor=#1ba1e2;strokeColor=#006EAF;fontColor=#ffffff;" parent="1" vertex="1">
          <mxGeometry x="2755" y="493.13" width="150" height="60" as="geometry" />
        </mxCell>
        <mxCell id="sWIOzSoLqstiNpKyMAqf-210" style="edgeStyle=orthogonalEdgeStyle;rounded=0;orthogonalLoop=1;jettySize=auto;html=1;entryX=0;entryY=0.5;entryDx=0;entryDy=0;" parent="1" source="sWIOzSoLqstiNpKyMAqf-213" target="sWIOzSoLqstiNpKyMAqf-208" edge="1">
          <mxGeometry relative="1" as="geometry" />
        </mxCell>
        <mxCell id="sWIOzSoLqstiNpKyMAqf-211" value="True" style="edgeLabel;html=1;align=center;verticalAlign=middle;resizable=0;points=[];" parent="sWIOzSoLqstiNpKyMAqf-210" vertex="1" connectable="0">
          <mxGeometry x="-0.3333" y="-1" relative="1" as="geometry">
            <mxPoint y="1" as="offset" />
          </mxGeometry>
        </mxCell>
        <mxCell id="sWIOzSoLqstiNpKyMAqf-212" value="False" style="edgeStyle=orthogonalEdgeStyle;rounded=0;orthogonalLoop=1;jettySize=auto;html=1;" parent="1" source="sWIOzSoLqstiNpKyMAqf-213" target="sWIOzSoLqstiNpKyMAqf-215" edge="1">
          <mxGeometry relative="1" as="geometry" />
        </mxCell>
        <mxCell id="sWIOzSoLqstiNpKyMAqf-213" value="If sum_1 &amp;gt;0&lt;br&gt;(total cost)" style="rhombus;whiteSpace=wrap;html=1;fillColor=#f8cecc;strokeColor=#b85450;" parent="1" vertex="1">
          <mxGeometry x="2600" y="348.13" width="110" height="90" as="geometry" />
        </mxCell>
        <mxCell id="sWIOzSoLqstiNpKyMAqf-214" style="edgeStyle=orthogonalEdgeStyle;rounded=0;orthogonalLoop=1;jettySize=auto;html=1;entryX=0.5;entryY=0;entryDx=0;entryDy=0;" parent="1" source="sWIOzSoLqstiNpKyMAqf-215" target="sWIOzSoLqstiNpKyMAqf-216" edge="1">
          <mxGeometry relative="1" as="geometry" />
        </mxCell>
        <mxCell id="sWIOzSoLqstiNpKyMAqf-215" value="Messagebox:&lt;br&gt;&quot;Please make an order&quot;" style="shape=parallelogram;perimeter=parallelogramPerimeter;whiteSpace=wrap;html=1;fixedSize=1;fillColor=#1ba1e2;strokeColor=#006EAF;fontColor=#ffffff;" parent="1" vertex="1">
          <mxGeometry x="2580" y="483.13" width="150" height="60" as="geometry" />
        </mxCell>
        <mxCell id="sWIOzSoLqstiNpKyMAqf-216" value="End" style="rounded=1;whiteSpace=wrap;html=1;fillColor=#fff2cc;strokeColor=#d6b656;" parent="1" vertex="1">
          <mxGeometry x="2595" y="583.13" width="120" height="30" as="geometry" />
        </mxCell>
        <mxCell id="sWIOzSoLqstiNpKyMAqf-217" style="edgeStyle=orthogonalEdgeStyle;rounded=0;orthogonalLoop=1;jettySize=auto;html=1;" parent="1" source="sWIOzSoLqstiNpKyMAqf-218" target="sWIOzSoLqstiNpKyMAqf-225" edge="1">
          <mxGeometry relative="1" as="geometry" />
        </mxCell>
        <mxCell id="sWIOzSoLqstiNpKyMAqf-218" value="Start&lt;br&gt;(Cancel entire order)" style="rounded=1;whiteSpace=wrap;html=1;fillColor=#fff2cc;strokeColor=#d6b656;" parent="1" vertex="1">
          <mxGeometry x="2450" y="669.38" width="120" height="37.5" as="geometry" />
        </mxCell>
        <mxCell id="sWIOzSoLqstiNpKyMAqf-219" style="edgeStyle=orthogonalEdgeStyle;rounded=0;orthogonalLoop=1;jettySize=auto;html=1;entryX=0.5;entryY=0;entryDx=0;entryDy=0;" parent="1" source="sWIOzSoLqstiNpKyMAqf-220" target="sWIOzSoLqstiNpKyMAqf-221" edge="1">
          <mxGeometry relative="1" as="geometry" />
        </mxCell>
        <mxCell id="sWIOzSoLqstiNpKyMAqf-220" value="Run view order&lt;br&gt;function" style="rounded=0;whiteSpace=wrap;html=1;fillColor=#d5e8d4;strokeColor=#82b366;" parent="1" vertex="1">
          <mxGeometry x="2790" y="645.63" width="120" height="87.5" as="geometry" />
        </mxCell>
        <mxCell id="sWIOzSoLqstiNpKyMAqf-221" value="Messagebox:&lt;br&gt;&quot;Please collect&lt;br&gt;your order at cafe&quot;" style="shape=parallelogram;perimeter=parallelogramPerimeter;whiteSpace=wrap;html=1;fixedSize=1;fillColor=#1ba1e2;strokeColor=#006EAF;fontColor=#ffffff;" parent="1" vertex="1">
          <mxGeometry x="2775" y="788.13" width="150" height="60" as="geometry" />
        </mxCell>
        <mxCell id="sWIOzSoLqstiNpKyMAqf-222" style="edgeStyle=orthogonalEdgeStyle;rounded=0;orthogonalLoop=1;jettySize=auto;html=1;entryX=0;entryY=0.5;entryDx=0;entryDy=0;" parent="1" source="sWIOzSoLqstiNpKyMAqf-225" target="sWIOzSoLqstiNpKyMAqf-220" edge="1">
          <mxGeometry relative="1" as="geometry" />
        </mxCell>
        <mxCell id="sWIOzSoLqstiNpKyMAqf-223" value="True" style="edgeLabel;html=1;align=center;verticalAlign=middle;resizable=0;points=[];" parent="sWIOzSoLqstiNpKyMAqf-222" vertex="1" connectable="0">
          <mxGeometry x="-0.3333" y="-1" relative="1" as="geometry">
            <mxPoint y="1" as="offset" />
          </mxGeometry>
        </mxCell>
        <mxCell id="sWIOzSoLqstiNpKyMAqf-224" value="False" style="edgeStyle=orthogonalEdgeStyle;rounded=0;orthogonalLoop=1;jettySize=auto;html=1;" parent="1" source="sWIOzSoLqstiNpKyMAqf-225" target="sWIOzSoLqstiNpKyMAqf-227" edge="1">
          <mxGeometry relative="1" as="geometry" />
        </mxCell>
        <mxCell id="sWIOzSoLqstiNpKyMAqf-225" value="If sum_1 &amp;gt;0&lt;br&gt;(total cost)" style="rhombus;whiteSpace=wrap;html=1;fillColor=#f8cecc;strokeColor=#b85450;" parent="1" vertex="1">
          <mxGeometry x="2620" y="643.13" width="110" height="90" as="geometry" />
        </mxCell>
        <mxCell id="sWIOzSoLqstiNpKyMAqf-226" style="edgeStyle=orthogonalEdgeStyle;rounded=0;orthogonalLoop=1;jettySize=auto;html=1;entryX=0.5;entryY=0;entryDx=0;entryDy=0;" parent="1" source="sWIOzSoLqstiNpKyMAqf-227" target="sWIOzSoLqstiNpKyMAqf-228" edge="1">
          <mxGeometry relative="1" as="geometry" />
        </mxCell>
        <mxCell id="sWIOzSoLqstiNpKyMAqf-227" value="Messagebox:&lt;br&gt;&quot;Please make an order&quot;" style="shape=parallelogram;perimeter=parallelogramPerimeter;whiteSpace=wrap;html=1;fixedSize=1;fillColor=#1ba1e2;strokeColor=#006EAF;fontColor=#ffffff;" parent="1" vertex="1">
          <mxGeometry x="2600" y="778.13" width="150" height="60" as="geometry" />
        </mxCell>
        <mxCell id="sWIOzSoLqstiNpKyMAqf-228" value="End" style="rounded=1;whiteSpace=wrap;html=1;fillColor=#fff2cc;strokeColor=#d6b656;" parent="1" vertex="1">
          <mxGeometry x="2615" y="878.13" width="120" height="30" as="geometry" />
        </mxCell>
        <mxCell id="OTEhBvLuvYDjkORVpGY_-4" value="True" style="edgeStyle=orthogonalEdgeStyle;rounded=0;orthogonalLoop=1;jettySize=auto;html=1;entryX=0.5;entryY=0;entryDx=0;entryDy=0;" parent="1" source="sWIOzSoLqstiNpKyMAqf-230" target="sWIOzSoLqstiNpKyMAqf-232" edge="1">
          <mxGeometry relative="1" as="geometry" />
        </mxCell>
        <mxCell id="sWIOzSoLqstiNpKyMAqf-230" value="&lt;br&gt;Widget button:&lt;br&gt;&quot;Checkout&quot;" style="shape=parallelogram;perimeter=parallelogramPerimeter;whiteSpace=wrap;html=1;fixedSize=1;fillColor=#dae8fc;strokeColor=#6c8ebf;" parent="1" vertex="1">
          <mxGeometry x="2110" y="97.5" width="120" height="60" as="geometry" />
        </mxCell>
        <mxCell id="sWIOzSoLqstiNpKyMAqf-231" style="edgeStyle=orthogonalEdgeStyle;rounded=0;orthogonalLoop=1;jettySize=auto;html=1;" parent="1" source="sWIOzSoLqstiNpKyMAqf-232" target="sWIOzSoLqstiNpKyMAqf-233" edge="1">
          <mxGeometry relative="1" as="geometry" />
        </mxCell>
        <mxCell id="sWIOzSoLqstiNpKyMAqf-232" value="Run cancel_order&lt;br&gt;function" style="rounded=0;whiteSpace=wrap;html=1;fillColor=#d5e8d4;strokeColor=#82b366;" parent="1" vertex="1">
          <mxGeometry x="2110" y="191.88" width="120" height="60" as="geometry" />
        </mxCell>
        <mxCell id="sWIOzSoLqstiNpKyMAqf-233" value="End" style="rounded=1;whiteSpace=wrap;html=1;fillColor=#fff2cc;strokeColor=#d6b656;" parent="1" vertex="1">
          <mxGeometry x="2110" y="281.88" width="120" height="30" as="geometry" />
        </mxCell>
        <mxCell id="sWIOzSoLqstiNpKyMAqf-249" style="edgeStyle=orthogonalEdgeStyle;rounded=0;orthogonalLoop=1;jettySize=auto;html=1;" parent="1" source="sWIOzSoLqstiNpKyMAqf-250" target="sWIOzSoLqstiNpKyMAqf-252" edge="1">
          <mxGeometry relative="1" as="geometry" />
        </mxCell>
        <mxCell id="sWIOzSoLqstiNpKyMAqf-250" value="Start&lt;br&gt;(Frame_4(Lunch))" style="rounded=1;whiteSpace=wrap;html=1;fillColor=#fff2cc;strokeColor=#d6b656;" parent="1" vertex="1">
          <mxGeometry x="810" y="1423.13" width="120" height="37.5" as="geometry" />
        </mxCell>
        <mxCell id="sWIOzSoLqstiNpKyMAqf-251" style="edgeStyle=orthogonalEdgeStyle;rounded=0;orthogonalLoop=1;jettySize=auto;html=1;" parent="1" source="sWIOzSoLqstiNpKyMAqf-252" target="sWIOzSoLqstiNpKyMAqf-255" edge="1">
          <mxGeometry relative="1" as="geometry">
            <mxPoint x="1111.0100000000002" y="1441.85" as="targetPoint" />
          </mxGeometry>
        </mxCell>
        <mxCell id="sWIOzSoLqstiNpKyMAqf-252" value="Create &quot;track_var&quot; list and spin box lists, lunch list&lt;br&gt;and frame3 and geometry size&lt;br&gt;global lists" style="rounded=0;whiteSpace=wrap;html=1;fillColor=#d5e8d4;strokeColor=#82b366;" parent="1" vertex="1">
          <mxGeometry x="960" y="1390" width="120" height="103.75" as="geometry" />
        </mxCell>
        <mxCell id="sWIOzSoLqstiNpKyMAqf-253" style="edgeStyle=orthogonalEdgeStyle;rounded=0;orthogonalLoop=1;jettySize=auto;html=1;entryX=0;entryY=0.5;entryDx=0;entryDy=0;" parent="1" source="sWIOzSoLqstiNpKyMAqf-255" target="sWIOzSoLqstiNpKyMAqf-259" edge="1">
          <mxGeometry relative="1" as="geometry" />
        </mxCell>
        <mxCell id="sWIOzSoLqstiNpKyMAqf-254" value="True" style="edgeStyle=orthogonalEdgeStyle;rounded=0;orthogonalLoop=1;jettySize=auto;html=1;entryX=0.5;entryY=0;entryDx=0;entryDy=0;" parent="1" source="sWIOzSoLqstiNpKyMAqf-255" target="sWIOzSoLqstiNpKyMAqf-283" edge="1">
          <mxGeometry relative="1" as="geometry" />
        </mxCell>
        <mxCell id="sWIOzSoLqstiNpKyMAqf-255" value="Widget checkbox:&lt;br&gt;For loop lunch" style="shape=parallelogram;perimeter=parallelogramPerimeter;whiteSpace=wrap;html=1;fixedSize=1;fillColor=#dae8fc;strokeColor=#6c8ebf;" parent="1" vertex="1">
          <mxGeometry x="1110" y="1411.88" width="150" height="60" as="geometry" />
        </mxCell>
        <mxCell id="sWIOzSoLqstiNpKyMAqf-256" value="True" style="edgeStyle=orthogonalEdgeStyle;rounded=0;orthogonalLoop=1;jettySize=auto;html=1;" parent="1" source="sWIOzSoLqstiNpKyMAqf-285" target="sWIOzSoLqstiNpKyMAqf-261" edge="1">
          <mxGeometry relative="1" as="geometry" />
        </mxCell>
        <mxCell id="sWIOzSoLqstiNpKyMAqf-258" style="edgeStyle=orthogonalEdgeStyle;rounded=0;orthogonalLoop=1;jettySize=auto;html=1;" parent="1" source="sWIOzSoLqstiNpKyMAqf-259" target="sWIOzSoLqstiNpKyMAqf-285" edge="1">
          <mxGeometry relative="1" as="geometry" />
        </mxCell>
        <mxCell id="pjii15zYUNtUu0hRlOJG-60" style="edgeStyle=orthogonalEdgeStyle;rounded=0;orthogonalLoop=1;jettySize=auto;html=1;" parent="1" source="sWIOzSoLqstiNpKyMAqf-259" target="pjii15zYUNtUu0hRlOJG-59" edge="1">
          <mxGeometry relative="1" as="geometry" />
        </mxCell>
        <mxCell id="sWIOzSoLqstiNpKyMAqf-259" value="Widget for loop spin&lt;br&gt;box" style="shape=parallelogram;perimeter=parallelogramPerimeter;whiteSpace=wrap;html=1;fixedSize=1;fillColor=#dae8fc;strokeColor=#6c8ebf;" parent="1" vertex="1">
          <mxGeometry x="1280" y="1411.88" width="150" height="60" as="geometry" />
        </mxCell>
        <mxCell id="sWIOzSoLqstiNpKyMAqf-260" value="&amp;nbsp;store 1&amp;nbsp;&lt;br&gt;into track_var" style="rounded=0;whiteSpace=wrap;html=1;fillColor=#d5e8d4;strokeColor=#82b366;" parent="1" vertex="1">
          <mxGeometry x="1125" y="1633.75" width="120" height="60" as="geometry" />
        </mxCell>
        <mxCell id="sWIOzSoLqstiNpKyMAqf-261" value="Store spinbox number in track_spinbox" style="rounded=0;whiteSpace=wrap;html=1;fillColor=#d5e8d4;strokeColor=#82b366;" parent="1" vertex="1">
          <mxGeometry x="1295" y="1633.75" width="120" height="60" as="geometry" />
        </mxCell>
        <mxCell id="sWIOzSoLqstiNpKyMAqf-262" style="edgeStyle=orthogonalEdgeStyle;rounded=0;orthogonalLoop=1;jettySize=auto;html=1;" parent="1" source="sWIOzSoLqstiNpKyMAqf-264" target="sWIOzSoLqstiNpKyMAqf-267" edge="1">
          <mxGeometry relative="1" as="geometry" />
        </mxCell>
        <mxCell id="sWIOzSoLqstiNpKyMAqf-263" value="True" style="edgeStyle=orthogonalEdgeStyle;rounded=0;orthogonalLoop=1;jettySize=auto;html=1;entryX=0.5;entryY=0;entryDx=0;entryDy=0;" parent="1" source="sWIOzSoLqstiNpKyMAqf-264" target="sWIOzSoLqstiNpKyMAqf-269" edge="1">
          <mxGeometry relative="1" as="geometry" />
        </mxCell>
        <mxCell id="sWIOzSoLqstiNpKyMAqf-264" value="Widget button:&lt;br&gt;&quot;Add order&quot;" style="shape=parallelogram;perimeter=parallelogramPerimeter;whiteSpace=wrap;html=1;fixedSize=1;fillColor=#dae8fc;strokeColor=#6c8ebf;" parent="1" vertex="1">
          <mxGeometry x="1640" y="1411.88" width="150" height="60" as="geometry" />
        </mxCell>
        <mxCell id="sWIOzSoLqstiNpKyMAqf-265" style="edgeStyle=orthogonalEdgeStyle;rounded=0;orthogonalLoop=1;jettySize=auto;html=1;" parent="1" source="sWIOzSoLqstiNpKyMAqf-267" target="sWIOzSoLqstiNpKyMAqf-320" edge="1">
          <mxGeometry relative="1" as="geometry">
            <mxPoint x="1995" y="1441.75" as="targetPoint" />
          </mxGeometry>
        </mxCell>
        <mxCell id="sWIOzSoLqstiNpKyMAqf-266" value="True" style="edgeStyle=orthogonalEdgeStyle;rounded=0;orthogonalLoop=1;jettySize=auto;html=1;" parent="1" source="sWIOzSoLqstiNpKyMAqf-267" target="sWIOzSoLqstiNpKyMAqf-271" edge="1">
          <mxGeometry relative="1" as="geometry" />
        </mxCell>
        <mxCell id="sWIOzSoLqstiNpKyMAqf-267" value="Widget button:&lt;br&gt;&quot;Remove order&quot;" style="shape=parallelogram;perimeter=parallelogramPerimeter;whiteSpace=wrap;html=1;fixedSize=1;fillColor=#dae8fc;strokeColor=#6c8ebf;" parent="1" vertex="1">
          <mxGeometry x="1810" y="1411.88" width="150" height="60" as="geometry" />
        </mxCell>
        <mxCell id="sWIOzSoLqstiNpKyMAqf-268" style="edgeStyle=orthogonalEdgeStyle;rounded=0;orthogonalLoop=1;jettySize=auto;html=1;entryX=0.5;entryY=0;entryDx=0;entryDy=0;" parent="1" source="sWIOzSoLqstiNpKyMAqf-269" target="sWIOzSoLqstiNpKyMAqf-292" edge="1">
          <mxGeometry relative="1" as="geometry" />
        </mxCell>
        <mxCell id="sWIOzSoLqstiNpKyMAqf-269" value="Run add_ord function" style="rounded=0;whiteSpace=wrap;html=1;fillColor=#d5e8d4;strokeColor=#82b366;" parent="1" vertex="1">
          <mxGeometry x="1655" y="1508.13" width="120" height="60" as="geometry" />
        </mxCell>
        <mxCell id="sWIOzSoLqstiNpKyMAqf-270" style="edgeStyle=orthogonalEdgeStyle;rounded=0;orthogonalLoop=1;jettySize=auto;html=1;entryX=0.5;entryY=0;entryDx=0;entryDy=0;" parent="1" source="sWIOzSoLqstiNpKyMAqf-271" target="sWIOzSoLqstiNpKyMAqf-293" edge="1">
          <mxGeometry relative="1" as="geometry" />
        </mxCell>
        <mxCell id="sWIOzSoLqstiNpKyMAqf-271" value="Run remove_order&lt;br&gt;function" style="rounded=0;whiteSpace=wrap;html=1;fillColor=#d5e8d4;strokeColor=#82b366;" parent="1" vertex="1">
          <mxGeometry x="1825" y="1510" width="120" height="60" as="geometry" />
        </mxCell>
        <mxCell id="sWIOzSoLqstiNpKyMAqf-281" value="True" style="edgeStyle=orthogonalEdgeStyle;rounded=0;orthogonalLoop=1;jettySize=auto;html=1;" parent="1" source="sWIOzSoLqstiNpKyMAqf-283" target="sWIOzSoLqstiNpKyMAqf-260" edge="1">
          <mxGeometry relative="1" as="geometry" />
        </mxCell>
        <mxCell id="sWIOzSoLqstiNpKyMAqf-282" value="False" style="edgeStyle=orthogonalEdgeStyle;rounded=0;orthogonalLoop=1;jettySize=auto;html=1;" parent="1" source="sWIOzSoLqstiNpKyMAqf-283" target="sWIOzSoLqstiNpKyMAqf-250" edge="1">
          <mxGeometry relative="1" as="geometry" />
        </mxCell>
        <mxCell id="sWIOzSoLqstiNpKyMAqf-283" value="If user has&lt;br&gt;checked&lt;br&gt;the checkbox" style="rhombus;whiteSpace=wrap;html=1;fillColor=#f8cecc;strokeColor=#b85450;" parent="1" vertex="1">
          <mxGeometry x="1130" y="1508.13" width="110" height="90" as="geometry" />
        </mxCell>
        <mxCell id="sWIOzSoLqstiNpKyMAqf-284" value="False" style="edgeStyle=orthogonalEdgeStyle;rounded=0;orthogonalLoop=1;jettySize=auto;html=1;" parent="1" source="sWIOzSoLqstiNpKyMAqf-285" target="sWIOzSoLqstiNpKyMAqf-250" edge="1">
          <mxGeometry relative="1" as="geometry">
            <Array as="points">
              <mxPoint x="1450" y="1554.75" />
              <mxPoint x="1450" y="1723.75" />
              <mxPoint x="870" y="1723.75" />
            </Array>
          </mxGeometry>
        </mxCell>
        <mxCell id="sWIOzSoLqstiNpKyMAqf-285" value="If user has check the box" style="rhombus;whiteSpace=wrap;html=1;fillColor=#f8cecc;strokeColor=#b85450;" parent="1" vertex="1">
          <mxGeometry x="1300" y="1510" width="110" height="90" as="geometry" />
        </mxCell>
        <mxCell id="sWIOzSoLqstiNpKyMAqf-292" value="End" style="rounded=1;whiteSpace=wrap;html=1;fillColor=#fff2cc;strokeColor=#d6b656;" parent="1" vertex="1">
          <mxGeometry x="1655" y="1598.13" width="120" height="30" as="geometry" />
        </mxCell>
        <mxCell id="sWIOzSoLqstiNpKyMAqf-293" value="End" style="rounded=1;whiteSpace=wrap;html=1;fillColor=#fff2cc;strokeColor=#d6b656;" parent="1" vertex="1">
          <mxGeometry x="1825" y="1598.13" width="120" height="30" as="geometry" />
        </mxCell>
        <mxCell id="sWIOzSoLqstiNpKyMAqf-310" value="" style="whiteSpace=wrap;html=1;" parent="1" vertex="1">
          <mxGeometry x="-230" y="70" width="20" height="1520" as="geometry" />
        </mxCell>
        <mxCell id="sWIOzSoLqstiNpKyMAqf-311" value="" style="whiteSpace=wrap;html=1;" parent="1" vertex="1">
          <mxGeometry x="710" y="81.88" width="20" height="2528.12" as="geometry" />
        </mxCell>
        <mxCell id="sWIOzSoLqstiNpKyMAqf-314" value="" style="whiteSpace=wrap;html=1;" parent="1" vertex="1">
          <mxGeometry x="730" y="1330" width="1690" height="20" as="geometry" />
        </mxCell>
        <mxCell id="sWIOzSoLqstiNpKyMAqf-315" value="" style="whiteSpace=wrap;html=1;" parent="1" vertex="1">
          <mxGeometry x="730" y="330" width="1680" height="18.13" as="geometry" />
        </mxCell>
        <mxCell id="sWIOzSoLqstiNpKyMAqf-317" value="" style="whiteSpace=wrap;html=1;" parent="1" vertex="1">
          <mxGeometry x="2410" y="330" width="20" height="2270" as="geometry" />
        </mxCell>
        <mxCell id="sWIOzSoLqstiNpKyMAqf-318" value="" style="whiteSpace=wrap;html=1;" parent="1" vertex="1">
          <mxGeometry x="-230" y="1568.13" width="960" height="20" as="geometry" />
        </mxCell>
        <mxCell id="sWIOzSoLqstiNpKyMAqf-319" value="True" style="edgeStyle=orthogonalEdgeStyle;rounded=0;orthogonalLoop=1;jettySize=auto;html=1;entryX=0.5;entryY=0;entryDx=0;entryDy=0;" parent="1" source="sWIOzSoLqstiNpKyMAqf-320" target="sWIOzSoLqstiNpKyMAqf-322" edge="1">
          <mxGeometry relative="1" as="geometry" />
        </mxCell>
        <mxCell id="cWhjbkL9U8iKRouWhas2-135" style="edgeStyle=orthogonalEdgeStyle;rounded=0;orthogonalLoop=1;jettySize=auto;html=1;entryX=0;entryY=0.5;entryDx=0;entryDy=0;" edge="1" parent="1" source="sWIOzSoLqstiNpKyMAqf-320" target="cWhjbkL9U8iKRouWhas2-134">
          <mxGeometry relative="1" as="geometry" />
        </mxCell>
        <mxCell id="sWIOzSoLqstiNpKyMAqf-320" value="Widget button:&lt;br&gt;&quot;Back to menu&quot;" style="shape=parallelogram;perimeter=parallelogramPerimeter;whiteSpace=wrap;html=1;fixedSize=1;fillColor=#dae8fc;strokeColor=#6c8ebf;" parent="1" vertex="1">
          <mxGeometry x="1990" y="1411.88" width="150" height="60" as="geometry" />
        </mxCell>
        <mxCell id="sWIOzSoLqstiNpKyMAqf-321" style="edgeStyle=orthogonalEdgeStyle;rounded=0;orthogonalLoop=1;jettySize=auto;html=1;entryX=0.5;entryY=0;entryDx=0;entryDy=0;" parent="1" source="sWIOzSoLqstiNpKyMAqf-322" target="sWIOzSoLqstiNpKyMAqf-323" edge="1">
          <mxGeometry relative="1" as="geometry" />
        </mxCell>
        <mxCell id="sWIOzSoLqstiNpKyMAqf-322" value="Run frame2&lt;br&gt;function" style="rounded=0;whiteSpace=wrap;html=1;fillColor=#d5e8d4;strokeColor=#82b366;" parent="1" vertex="1">
          <mxGeometry x="2005" y="1512.5" width="120" height="60" as="geometry" />
        </mxCell>
        <mxCell id="sWIOzSoLqstiNpKyMAqf-323" value="End" style="rounded=1;whiteSpace=wrap;html=1;fillColor=#fff2cc;strokeColor=#d6b656;" parent="1" vertex="1">
          <mxGeometry x="2005" y="1603.75" width="120" height="30" as="geometry" />
        </mxCell>
        <mxCell id="sWIOzSoLqstiNpKyMAqf-324" value="" style="whiteSpace=wrap;html=1;" parent="1" vertex="1">
          <mxGeometry x="730" y="1744" width="1680" height="20" as="geometry" />
        </mxCell>
        <mxCell id="sWIOzSoLqstiNpKyMAqf-325" style="edgeStyle=orthogonalEdgeStyle;rounded=0;orthogonalLoop=1;jettySize=auto;html=1;" parent="1" source="sWIOzSoLqstiNpKyMAqf-326" target="sWIOzSoLqstiNpKyMAqf-328" edge="1">
          <mxGeometry relative="1" as="geometry" />
        </mxCell>
        <mxCell id="sWIOzSoLqstiNpKyMAqf-326" value="Start&lt;br&gt;(Frame_5(snacks))" style="rounded=1;whiteSpace=wrap;html=1;fillColor=#fff2cc;strokeColor=#d6b656;" parent="1" vertex="1">
          <mxGeometry x="810" y="1843.13" width="120" height="37.5" as="geometry" />
        </mxCell>
        <mxCell id="sWIOzSoLqstiNpKyMAqf-327" style="edgeStyle=orthogonalEdgeStyle;rounded=0;orthogonalLoop=1;jettySize=auto;html=1;" parent="1" source="sWIOzSoLqstiNpKyMAqf-328" target="sWIOzSoLqstiNpKyMAqf-331" edge="1">
          <mxGeometry relative="1" as="geometry">
            <mxPoint x="1111.0100000000002" y="1861.85" as="targetPoint" />
          </mxGeometry>
        </mxCell>
        <mxCell id="sWIOzSoLqstiNpKyMAqf-328" value="Create &quot;track_var&quot; list and spin box lists, snacks list&lt;br&gt;and frame3 and geometry size&lt;br&gt;global lists" style="rounded=0;whiteSpace=wrap;html=1;fillColor=#d5e8d4;strokeColor=#82b366;" parent="1" vertex="1">
          <mxGeometry x="960" y="1810" width="120" height="103.75" as="geometry" />
        </mxCell>
        <mxCell id="sWIOzSoLqstiNpKyMAqf-329" style="edgeStyle=orthogonalEdgeStyle;rounded=0;orthogonalLoop=1;jettySize=auto;html=1;entryX=0;entryY=0.5;entryDx=0;entryDy=0;" parent="1" source="sWIOzSoLqstiNpKyMAqf-331" target="sWIOzSoLqstiNpKyMAqf-335" edge="1">
          <mxGeometry relative="1" as="geometry" />
        </mxCell>
        <mxCell id="sWIOzSoLqstiNpKyMAqf-330" value="True" style="edgeStyle=orthogonalEdgeStyle;rounded=0;orthogonalLoop=1;jettySize=auto;html=1;entryX=0.5;entryY=0;entryDx=0;entryDy=0;" parent="1" source="sWIOzSoLqstiNpKyMAqf-331" target="sWIOzSoLqstiNpKyMAqf-359" edge="1">
          <mxGeometry relative="1" as="geometry" />
        </mxCell>
        <mxCell id="sWIOzSoLqstiNpKyMAqf-331" value="Widget checkbox:&lt;br&gt;For loop snacks" style="shape=parallelogram;perimeter=parallelogramPerimeter;whiteSpace=wrap;html=1;fixedSize=1;fillColor=#dae8fc;strokeColor=#6c8ebf;" parent="1" vertex="1">
          <mxGeometry x="1110" y="1831.88" width="150" height="60" as="geometry" />
        </mxCell>
        <mxCell id="sWIOzSoLqstiNpKyMAqf-332" value="True" style="edgeStyle=orthogonalEdgeStyle;rounded=0;orthogonalLoop=1;jettySize=auto;html=1;" parent="1" source="sWIOzSoLqstiNpKyMAqf-361" target="sWIOzSoLqstiNpKyMAqf-337" edge="1">
          <mxGeometry relative="1" as="geometry" />
        </mxCell>
        <mxCell id="sWIOzSoLqstiNpKyMAqf-334" style="edgeStyle=orthogonalEdgeStyle;rounded=0;orthogonalLoop=1;jettySize=auto;html=1;" parent="1" source="sWIOzSoLqstiNpKyMAqf-335" target="sWIOzSoLqstiNpKyMAqf-361" edge="1">
          <mxGeometry relative="1" as="geometry" />
        </mxCell>
        <mxCell id="pjii15zYUNtUu0hRlOJG-64" style="edgeStyle=orthogonalEdgeStyle;rounded=0;orthogonalLoop=1;jettySize=auto;html=1;entryX=0;entryY=0.5;entryDx=0;entryDy=0;" parent="1" source="sWIOzSoLqstiNpKyMAqf-335" target="pjii15zYUNtUu0hRlOJG-62" edge="1">
          <mxGeometry relative="1" as="geometry" />
        </mxCell>
        <mxCell id="sWIOzSoLqstiNpKyMAqf-335" value="Widget for loop spin&lt;br&gt;box" style="shape=parallelogram;perimeter=parallelogramPerimeter;whiteSpace=wrap;html=1;fixedSize=1;fillColor=#dae8fc;strokeColor=#6c8ebf;" parent="1" vertex="1">
          <mxGeometry x="1280" y="1831.88" width="150" height="60" as="geometry" />
        </mxCell>
        <mxCell id="sWIOzSoLqstiNpKyMAqf-336" value="&amp;nbsp;store 1&amp;nbsp;&lt;br&gt;into track_var" style="rounded=0;whiteSpace=wrap;html=1;fillColor=#d5e8d4;strokeColor=#82b366;" parent="1" vertex="1">
          <mxGeometry x="1125" y="2053.75" width="120" height="60" as="geometry" />
        </mxCell>
        <mxCell id="sWIOzSoLqstiNpKyMAqf-337" value="Store spinbox number in track_spinbox" style="rounded=0;whiteSpace=wrap;html=1;fillColor=#d5e8d4;strokeColor=#82b366;" parent="1" vertex="1">
          <mxGeometry x="1295" y="2053.75" width="120" height="60" as="geometry" />
        </mxCell>
        <mxCell id="sWIOzSoLqstiNpKyMAqf-338" style="edgeStyle=orthogonalEdgeStyle;rounded=0;orthogonalLoop=1;jettySize=auto;html=1;" parent="1" source="sWIOzSoLqstiNpKyMAqf-340" target="sWIOzSoLqstiNpKyMAqf-343" edge="1">
          <mxGeometry relative="1" as="geometry" />
        </mxCell>
        <mxCell id="sWIOzSoLqstiNpKyMAqf-339" value="True" style="edgeStyle=orthogonalEdgeStyle;rounded=0;orthogonalLoop=1;jettySize=auto;html=1;entryX=0.5;entryY=0;entryDx=0;entryDy=0;" parent="1" source="sWIOzSoLqstiNpKyMAqf-340" target="sWIOzSoLqstiNpKyMAqf-345" edge="1">
          <mxGeometry relative="1" as="geometry" />
        </mxCell>
        <mxCell id="sWIOzSoLqstiNpKyMAqf-340" value="Widget button:&lt;br&gt;&quot;Add order&quot;" style="shape=parallelogram;perimeter=parallelogramPerimeter;whiteSpace=wrap;html=1;fixedSize=1;fillColor=#dae8fc;strokeColor=#6c8ebf;" parent="1" vertex="1">
          <mxGeometry x="1625" y="1831.88" width="150" height="60" as="geometry" />
        </mxCell>
        <mxCell id="sWIOzSoLqstiNpKyMAqf-342" value="True" style="edgeStyle=orthogonalEdgeStyle;rounded=0;orthogonalLoop=1;jettySize=auto;html=1;" parent="1" source="sWIOzSoLqstiNpKyMAqf-343" target="sWIOzSoLqstiNpKyMAqf-347" edge="1">
          <mxGeometry relative="1" as="geometry" />
        </mxCell>
        <mxCell id="pjii15zYUNtUu0hRlOJG-63" style="edgeStyle=orthogonalEdgeStyle;rounded=0;orthogonalLoop=1;jettySize=auto;html=1;" parent="1" source="sWIOzSoLqstiNpKyMAqf-343" target="pjii15zYUNtUu0hRlOJG-8" edge="1">
          <mxGeometry relative="1" as="geometry" />
        </mxCell>
        <mxCell id="sWIOzSoLqstiNpKyMAqf-343" value="Widget button:&lt;br&gt;&quot;Remove order&quot;" style="shape=parallelogram;perimeter=parallelogramPerimeter;whiteSpace=wrap;html=1;fixedSize=1;fillColor=#dae8fc;strokeColor=#6c8ebf;" parent="1" vertex="1">
          <mxGeometry x="1795" y="1831.88" width="150" height="60" as="geometry" />
        </mxCell>
        <mxCell id="sWIOzSoLqstiNpKyMAqf-344" style="edgeStyle=orthogonalEdgeStyle;rounded=0;orthogonalLoop=1;jettySize=auto;html=1;entryX=0.5;entryY=0;entryDx=0;entryDy=0;" parent="1" source="sWIOzSoLqstiNpKyMAqf-345" target="sWIOzSoLqstiNpKyMAqf-368" edge="1">
          <mxGeometry relative="1" as="geometry" />
        </mxCell>
        <mxCell id="sWIOzSoLqstiNpKyMAqf-345" value="Run add_ord function" style="rounded=0;whiteSpace=wrap;html=1;fillColor=#d5e8d4;strokeColor=#82b366;" parent="1" vertex="1">
          <mxGeometry x="1640" y="1928.13" width="120" height="60" as="geometry" />
        </mxCell>
        <mxCell id="sWIOzSoLqstiNpKyMAqf-346" style="edgeStyle=orthogonalEdgeStyle;rounded=0;orthogonalLoop=1;jettySize=auto;html=1;entryX=0.5;entryY=0;entryDx=0;entryDy=0;" parent="1" source="sWIOzSoLqstiNpKyMAqf-347" target="sWIOzSoLqstiNpKyMAqf-369" edge="1">
          <mxGeometry relative="1" as="geometry" />
        </mxCell>
        <mxCell id="sWIOzSoLqstiNpKyMAqf-347" value="Run remove_order&lt;br&gt;function" style="rounded=0;whiteSpace=wrap;html=1;fillColor=#d5e8d4;strokeColor=#82b366;" parent="1" vertex="1">
          <mxGeometry x="1810" y="1930" width="120" height="60" as="geometry" />
        </mxCell>
        <mxCell id="sWIOzSoLqstiNpKyMAqf-357" value="True" style="edgeStyle=orthogonalEdgeStyle;rounded=0;orthogonalLoop=1;jettySize=auto;html=1;" parent="1" source="sWIOzSoLqstiNpKyMAqf-359" target="sWIOzSoLqstiNpKyMAqf-336" edge="1">
          <mxGeometry relative="1" as="geometry" />
        </mxCell>
        <mxCell id="sWIOzSoLqstiNpKyMAqf-358" value="False" style="edgeStyle=orthogonalEdgeStyle;rounded=0;orthogonalLoop=1;jettySize=auto;html=1;" parent="1" source="sWIOzSoLqstiNpKyMAqf-359" target="sWIOzSoLqstiNpKyMAqf-326" edge="1">
          <mxGeometry relative="1" as="geometry" />
        </mxCell>
        <mxCell id="sWIOzSoLqstiNpKyMAqf-359" value="If user has&lt;br&gt;checked&lt;br&gt;the checkbox" style="rhombus;whiteSpace=wrap;html=1;fillColor=#f8cecc;strokeColor=#b85450;" parent="1" vertex="1">
          <mxGeometry x="1130" y="1928.13" width="110" height="90" as="geometry" />
        </mxCell>
        <mxCell id="sWIOzSoLqstiNpKyMAqf-360" value="False" style="edgeStyle=orthogonalEdgeStyle;rounded=0;orthogonalLoop=1;jettySize=auto;html=1;" parent="1" source="sWIOzSoLqstiNpKyMAqf-361" target="sWIOzSoLqstiNpKyMAqf-326" edge="1">
          <mxGeometry relative="1" as="geometry">
            <Array as="points">
              <mxPoint x="1450" y="1974.75" />
              <mxPoint x="1450" y="2143.75" />
              <mxPoint x="870" y="2143.75" />
            </Array>
          </mxGeometry>
        </mxCell>
        <mxCell id="sWIOzSoLqstiNpKyMAqf-361" value="If user has check the box" style="rhombus;whiteSpace=wrap;html=1;fillColor=#f8cecc;strokeColor=#b85450;" parent="1" vertex="1">
          <mxGeometry x="1300" y="1930" width="110" height="90" as="geometry" />
        </mxCell>
        <mxCell id="sWIOzSoLqstiNpKyMAqf-368" value="End" style="rounded=1;whiteSpace=wrap;html=1;fillColor=#fff2cc;strokeColor=#d6b656;" parent="1" vertex="1">
          <mxGeometry x="1640" y="2018.13" width="120" height="30" as="geometry" />
        </mxCell>
        <mxCell id="sWIOzSoLqstiNpKyMAqf-369" value="End" style="rounded=1;whiteSpace=wrap;html=1;fillColor=#fff2cc;strokeColor=#d6b656;" parent="1" vertex="1">
          <mxGeometry x="1810" y="2018.13" width="120" height="30" as="geometry" />
        </mxCell>
        <mxCell id="sWIOzSoLqstiNpKyMAqf-385" value="" style="whiteSpace=wrap;html=1;" parent="1" vertex="1">
          <mxGeometry x="-1120" y="630" width="890" height="30" as="geometry" />
        </mxCell>
        <mxCell id="sWIOzSoLqstiNpKyMAqf-387" style="edgeStyle=orthogonalEdgeStyle;rounded=0;orthogonalLoop=1;jettySize=auto;html=1;" parent="1" source="sWIOzSoLqstiNpKyMAqf-388" target="sWIOzSoLqstiNpKyMAqf-390" edge="1">
          <mxGeometry relative="1" as="geometry" />
        </mxCell>
        <mxCell id="sWIOzSoLqstiNpKyMAqf-388" value="Start&lt;br&gt;(Frame_6(Frozen))" style="rounded=1;whiteSpace=wrap;html=1;fillColor=#fff2cc;strokeColor=#d6b656;" parent="1" vertex="1">
          <mxGeometry x="787.5" y="2243.13" width="120" height="37.5" as="geometry" />
        </mxCell>
        <mxCell id="sWIOzSoLqstiNpKyMAqf-389" style="edgeStyle=orthogonalEdgeStyle;rounded=0;orthogonalLoop=1;jettySize=auto;html=1;" parent="1" source="sWIOzSoLqstiNpKyMAqf-390" target="sWIOzSoLqstiNpKyMAqf-393" edge="1">
          <mxGeometry relative="1" as="geometry">
            <mxPoint x="1088.5100000000002" y="2261.85" as="targetPoint" />
          </mxGeometry>
        </mxCell>
        <mxCell id="sWIOzSoLqstiNpKyMAqf-390" value="Create &quot;track_var&quot; list and spin box lists, frozen list&lt;br&gt;and frame3 and geometry size&lt;br&gt;global lists" style="rounded=0;whiteSpace=wrap;html=1;fillColor=#d5e8d4;strokeColor=#82b366;" parent="1" vertex="1">
          <mxGeometry x="937.5" y="2210" width="120" height="103.75" as="geometry" />
        </mxCell>
        <mxCell id="sWIOzSoLqstiNpKyMAqf-391" style="edgeStyle=orthogonalEdgeStyle;rounded=0;orthogonalLoop=1;jettySize=auto;html=1;entryX=0;entryY=0.5;entryDx=0;entryDy=0;" parent="1" source="sWIOzSoLqstiNpKyMAqf-393" target="sWIOzSoLqstiNpKyMAqf-397" edge="1">
          <mxGeometry relative="1" as="geometry" />
        </mxCell>
        <mxCell id="sWIOzSoLqstiNpKyMAqf-392" value="True" style="edgeStyle=orthogonalEdgeStyle;rounded=0;orthogonalLoop=1;jettySize=auto;html=1;entryX=0.5;entryY=0;entryDx=0;entryDy=0;" parent="1" source="sWIOzSoLqstiNpKyMAqf-393" target="sWIOzSoLqstiNpKyMAqf-421" edge="1">
          <mxGeometry relative="1" as="geometry" />
        </mxCell>
        <mxCell id="sWIOzSoLqstiNpKyMAqf-393" value="Widget checkbox:&lt;br&gt;For loop frozen" style="shape=parallelogram;perimeter=parallelogramPerimeter;whiteSpace=wrap;html=1;fixedSize=1;fillColor=#dae8fc;strokeColor=#6c8ebf;" parent="1" vertex="1">
          <mxGeometry x="1087.5" y="2231.88" width="150" height="60" as="geometry" />
        </mxCell>
        <mxCell id="sWIOzSoLqstiNpKyMAqf-394" value="True" style="edgeStyle=orthogonalEdgeStyle;rounded=0;orthogonalLoop=1;jettySize=auto;html=1;" parent="1" source="sWIOzSoLqstiNpKyMAqf-423" target="sWIOzSoLqstiNpKyMAqf-399" edge="1">
          <mxGeometry relative="1" as="geometry" />
        </mxCell>
        <mxCell id="sWIOzSoLqstiNpKyMAqf-396" style="edgeStyle=orthogonalEdgeStyle;rounded=0;orthogonalLoop=1;jettySize=auto;html=1;" parent="1" source="sWIOzSoLqstiNpKyMAqf-397" target="sWIOzSoLqstiNpKyMAqf-423" edge="1">
          <mxGeometry relative="1" as="geometry" />
        </mxCell>
        <mxCell id="pjii15zYUNtUu0hRlOJG-69" style="edgeStyle=orthogonalEdgeStyle;rounded=0;orthogonalLoop=1;jettySize=auto;html=1;" parent="1" target="pjii15zYUNtUu0hRlOJG-67" edge="1">
          <mxGeometry relative="1" as="geometry">
            <mxPoint x="1367.5" y="2261.88" as="sourcePoint" />
          </mxGeometry>
        </mxCell>
        <mxCell id="sWIOzSoLqstiNpKyMAqf-397" value="Widget for loop spin&lt;br&gt;box" style="shape=parallelogram;perimeter=parallelogramPerimeter;whiteSpace=wrap;html=1;fixedSize=1;fillColor=#dae8fc;strokeColor=#6c8ebf;" parent="1" vertex="1">
          <mxGeometry x="1257.5" y="2231.88" width="150" height="60" as="geometry" />
        </mxCell>
        <mxCell id="sWIOzSoLqstiNpKyMAqf-398" value="&amp;nbsp;store 1&amp;nbsp;&lt;br&gt;into track_var" style="rounded=0;whiteSpace=wrap;html=1;fillColor=#d5e8d4;strokeColor=#82b366;" parent="1" vertex="1">
          <mxGeometry x="1102.5" y="2453.75" width="120" height="60" as="geometry" />
        </mxCell>
        <mxCell id="sWIOzSoLqstiNpKyMAqf-399" value="Store spinbox number in track_spinbox" style="rounded=0;whiteSpace=wrap;html=1;fillColor=#d5e8d4;strokeColor=#82b366;" parent="1" vertex="1">
          <mxGeometry x="1272.5" y="2453.75" width="120" height="60" as="geometry" />
        </mxCell>
        <mxCell id="sWIOzSoLqstiNpKyMAqf-400" style="edgeStyle=orthogonalEdgeStyle;rounded=0;orthogonalLoop=1;jettySize=auto;html=1;" parent="1" source="sWIOzSoLqstiNpKyMAqf-402" target="sWIOzSoLqstiNpKyMAqf-405" edge="1">
          <mxGeometry relative="1" as="geometry" />
        </mxCell>
        <mxCell id="sWIOzSoLqstiNpKyMAqf-401" value="True" style="edgeStyle=orthogonalEdgeStyle;rounded=0;orthogonalLoop=1;jettySize=auto;html=1;entryX=0.5;entryY=0;entryDx=0;entryDy=0;" parent="1" source="sWIOzSoLqstiNpKyMAqf-402" target="sWIOzSoLqstiNpKyMAqf-407" edge="1">
          <mxGeometry relative="1" as="geometry" />
        </mxCell>
        <mxCell id="sWIOzSoLqstiNpKyMAqf-402" value="Widget button:&lt;br&gt;&quot;Add order&quot;" style="shape=parallelogram;perimeter=parallelogramPerimeter;whiteSpace=wrap;html=1;fixedSize=1;fillColor=#dae8fc;strokeColor=#6c8ebf;" parent="1" vertex="1">
          <mxGeometry x="1592.5" y="2231.88" width="150" height="60" as="geometry" />
        </mxCell>
        <mxCell id="sWIOzSoLqstiNpKyMAqf-403" style="edgeStyle=orthogonalEdgeStyle;rounded=0;orthogonalLoop=1;jettySize=auto;html=1;" parent="1" source="sWIOzSoLqstiNpKyMAqf-405" target="pjii15zYUNtUu0hRlOJG-13" edge="1">
          <mxGeometry relative="1" as="geometry">
            <mxPoint x="1952.5" y="2262" as="targetPoint" />
          </mxGeometry>
        </mxCell>
        <mxCell id="sWIOzSoLqstiNpKyMAqf-404" value="True" style="edgeStyle=orthogonalEdgeStyle;rounded=0;orthogonalLoop=1;jettySize=auto;html=1;" parent="1" source="sWIOzSoLqstiNpKyMAqf-405" target="sWIOzSoLqstiNpKyMAqf-409" edge="1">
          <mxGeometry relative="1" as="geometry" />
        </mxCell>
        <mxCell id="sWIOzSoLqstiNpKyMAqf-405" value="Widget button:&lt;br&gt;&quot;Remove order&quot;" style="shape=parallelogram;perimeter=parallelogramPerimeter;whiteSpace=wrap;html=1;fixedSize=1;fillColor=#dae8fc;strokeColor=#6c8ebf;" parent="1" vertex="1">
          <mxGeometry x="1762.5" y="2231.88" width="150" height="60" as="geometry" />
        </mxCell>
        <mxCell id="sWIOzSoLqstiNpKyMAqf-406" style="edgeStyle=orthogonalEdgeStyle;rounded=0;orthogonalLoop=1;jettySize=auto;html=1;entryX=0.5;entryY=0;entryDx=0;entryDy=0;" parent="1" source="sWIOzSoLqstiNpKyMAqf-407" target="sWIOzSoLqstiNpKyMAqf-430" edge="1">
          <mxGeometry relative="1" as="geometry" />
        </mxCell>
        <mxCell id="sWIOzSoLqstiNpKyMAqf-407" value="Run add_ord function" style="rounded=0;whiteSpace=wrap;html=1;fillColor=#d5e8d4;strokeColor=#82b366;" parent="1" vertex="1">
          <mxGeometry x="1607.5" y="2328.13" width="120" height="60" as="geometry" />
        </mxCell>
        <mxCell id="sWIOzSoLqstiNpKyMAqf-408" style="edgeStyle=orthogonalEdgeStyle;rounded=0;orthogonalLoop=1;jettySize=auto;html=1;entryX=0.5;entryY=0;entryDx=0;entryDy=0;" parent="1" source="sWIOzSoLqstiNpKyMAqf-409" target="sWIOzSoLqstiNpKyMAqf-431" edge="1">
          <mxGeometry relative="1" as="geometry" />
        </mxCell>
        <mxCell id="sWIOzSoLqstiNpKyMAqf-409" value="Run remove_order&lt;br&gt;function" style="rounded=0;whiteSpace=wrap;html=1;fillColor=#d5e8d4;strokeColor=#82b366;" parent="1" vertex="1">
          <mxGeometry x="1777.5" y="2330" width="120" height="60" as="geometry" />
        </mxCell>
        <mxCell id="sWIOzSoLqstiNpKyMAqf-419" value="True" style="edgeStyle=orthogonalEdgeStyle;rounded=0;orthogonalLoop=1;jettySize=auto;html=1;" parent="1" source="sWIOzSoLqstiNpKyMAqf-421" target="sWIOzSoLqstiNpKyMAqf-398" edge="1">
          <mxGeometry relative="1" as="geometry" />
        </mxCell>
        <mxCell id="sWIOzSoLqstiNpKyMAqf-420" value="False" style="edgeStyle=orthogonalEdgeStyle;rounded=0;orthogonalLoop=1;jettySize=auto;html=1;" parent="1" source="sWIOzSoLqstiNpKyMAqf-421" target="sWIOzSoLqstiNpKyMAqf-388" edge="1">
          <mxGeometry relative="1" as="geometry" />
        </mxCell>
        <mxCell id="sWIOzSoLqstiNpKyMAqf-421" value="If user has&lt;br&gt;checked&lt;br&gt;the checkbox" style="rhombus;whiteSpace=wrap;html=1;fillColor=#f8cecc;strokeColor=#b85450;" parent="1" vertex="1">
          <mxGeometry x="1107.5" y="2328.13" width="110" height="90" as="geometry" />
        </mxCell>
        <mxCell id="sWIOzSoLqstiNpKyMAqf-422" value="False" style="edgeStyle=orthogonalEdgeStyle;rounded=0;orthogonalLoop=1;jettySize=auto;html=1;" parent="1" source="sWIOzSoLqstiNpKyMAqf-423" target="sWIOzSoLqstiNpKyMAqf-388" edge="1">
          <mxGeometry relative="1" as="geometry">
            <Array as="points">
              <mxPoint x="1427.5" y="2374.75" />
              <mxPoint x="1427.5" y="2543.75" />
              <mxPoint x="847.5" y="2543.75" />
            </Array>
          </mxGeometry>
        </mxCell>
        <mxCell id="sWIOzSoLqstiNpKyMAqf-423" value="If user has check the box" style="rhombus;whiteSpace=wrap;html=1;fillColor=#f8cecc;strokeColor=#b85450;" parent="1" vertex="1">
          <mxGeometry x="1277.5" y="2330" width="110" height="90" as="geometry" />
        </mxCell>
        <mxCell id="sWIOzSoLqstiNpKyMAqf-430" value="End" style="rounded=1;whiteSpace=wrap;html=1;fillColor=#fff2cc;strokeColor=#d6b656;" parent="1" vertex="1">
          <mxGeometry x="1607.5" y="2418.13" width="120" height="30" as="geometry" />
        </mxCell>
        <mxCell id="sWIOzSoLqstiNpKyMAqf-431" value="End" style="rounded=1;whiteSpace=wrap;html=1;fillColor=#fff2cc;strokeColor=#d6b656;" parent="1" vertex="1">
          <mxGeometry x="1777.5" y="2418.13" width="120" height="30" as="geometry" />
        </mxCell>
        <mxCell id="sWIOzSoLqstiNpKyMAqf-447" value="" style="whiteSpace=wrap;html=1;" parent="1" vertex="1">
          <mxGeometry x="730" y="2590" width="1700" height="20" as="geometry" />
        </mxCell>
        <mxCell id="pjii15zYUNtUu0hRlOJG-7" value="True" style="edgeStyle=orthogonalEdgeStyle;rounded=0;orthogonalLoop=1;jettySize=auto;html=1;entryX=0.5;entryY=0;entryDx=0;entryDy=0;" parent="1" source="pjii15zYUNtUu0hRlOJG-8" target="pjii15zYUNtUu0hRlOJG-10" edge="1">
          <mxGeometry relative="1" as="geometry" />
        </mxCell>
        <mxCell id="cWhjbkL9U8iKRouWhas2-138" style="edgeStyle=orthogonalEdgeStyle;rounded=0;orthogonalLoop=1;jettySize=auto;html=1;" edge="1" parent="1" source="pjii15zYUNtUu0hRlOJG-8" target="cWhjbkL9U8iKRouWhas2-137">
          <mxGeometry relative="1" as="geometry" />
        </mxCell>
        <mxCell id="pjii15zYUNtUu0hRlOJG-8" value="Widget button:&lt;br&gt;&quot;Back to menu&quot;" style="shape=parallelogram;perimeter=parallelogramPerimeter;whiteSpace=wrap;html=1;fixedSize=1;fillColor=#dae8fc;strokeColor=#6c8ebf;" parent="1" vertex="1">
          <mxGeometry x="1975" y="1831.88" width="150" height="60" as="geometry" />
        </mxCell>
        <mxCell id="pjii15zYUNtUu0hRlOJG-9" style="edgeStyle=orthogonalEdgeStyle;rounded=0;orthogonalLoop=1;jettySize=auto;html=1;entryX=0.5;entryY=0;entryDx=0;entryDy=0;" parent="1" source="pjii15zYUNtUu0hRlOJG-10" target="pjii15zYUNtUu0hRlOJG-11" edge="1">
          <mxGeometry relative="1" as="geometry" />
        </mxCell>
        <mxCell id="pjii15zYUNtUu0hRlOJG-10" value="Run frame2&lt;br&gt;function" style="rounded=0;whiteSpace=wrap;html=1;fillColor=#d5e8d4;strokeColor=#82b366;" parent="1" vertex="1">
          <mxGeometry x="1990" y="1932.5" width="120" height="60" as="geometry" />
        </mxCell>
        <mxCell id="pjii15zYUNtUu0hRlOJG-11" value="End" style="rounded=1;whiteSpace=wrap;html=1;fillColor=#fff2cc;strokeColor=#d6b656;" parent="1" vertex="1">
          <mxGeometry x="1990" y="2023.75" width="120" height="30" as="geometry" />
        </mxCell>
        <mxCell id="pjii15zYUNtUu0hRlOJG-12" value="True" style="edgeStyle=orthogonalEdgeStyle;rounded=0;orthogonalLoop=1;jettySize=auto;html=1;entryX=0.5;entryY=0;entryDx=0;entryDy=0;" parent="1" source="pjii15zYUNtUu0hRlOJG-13" target="pjii15zYUNtUu0hRlOJG-15" edge="1">
          <mxGeometry relative="1" as="geometry" />
        </mxCell>
        <mxCell id="cWhjbkL9U8iKRouWhas2-140" style="edgeStyle=orthogonalEdgeStyle;rounded=0;orthogonalLoop=1;jettySize=auto;html=1;entryX=0;entryY=0.5;entryDx=0;entryDy=0;" edge="1" parent="1" source="pjii15zYUNtUu0hRlOJG-13" target="cWhjbkL9U8iKRouWhas2-139">
          <mxGeometry relative="1" as="geometry" />
        </mxCell>
        <mxCell id="pjii15zYUNtUu0hRlOJG-13" value="Widget button:&lt;br&gt;&quot;Back to menu&quot;" style="shape=parallelogram;perimeter=parallelogramPerimeter;whiteSpace=wrap;html=1;fixedSize=1;fillColor=#dae8fc;strokeColor=#6c8ebf;" parent="1" vertex="1">
          <mxGeometry x="1942.5" y="2231.88" width="150" height="60" as="geometry" />
        </mxCell>
        <mxCell id="pjii15zYUNtUu0hRlOJG-14" style="edgeStyle=orthogonalEdgeStyle;rounded=0;orthogonalLoop=1;jettySize=auto;html=1;entryX=0.5;entryY=0;entryDx=0;entryDy=0;" parent="1" source="pjii15zYUNtUu0hRlOJG-15" target="pjii15zYUNtUu0hRlOJG-16" edge="1">
          <mxGeometry relative="1" as="geometry" />
        </mxCell>
        <mxCell id="pjii15zYUNtUu0hRlOJG-15" value="Run frame2&lt;br&gt;function" style="rounded=0;whiteSpace=wrap;html=1;fillColor=#d5e8d4;strokeColor=#82b366;" parent="1" vertex="1">
          <mxGeometry x="1957.5" y="2332.5" width="120" height="60" as="geometry" />
        </mxCell>
        <mxCell id="pjii15zYUNtUu0hRlOJG-16" value="End" style="rounded=1;whiteSpace=wrap;html=1;fillColor=#fff2cc;strokeColor=#d6b656;" parent="1" vertex="1">
          <mxGeometry x="1957.5" y="2423.75" width="120" height="30" as="geometry" />
        </mxCell>
        <mxCell id="pjii15zYUNtUu0hRlOJG-17" value="" style="whiteSpace=wrap;html=1;" parent="1" vertex="1">
          <mxGeometry x="730" y="2170" width="1680" height="20" as="geometry" />
        </mxCell>
        <mxCell id="pjii15zYUNtUu0hRlOJG-18" style="edgeStyle=orthogonalEdgeStyle;rounded=0;orthogonalLoop=1;jettySize=auto;html=1;" parent="1" source="pjii15zYUNtUu0hRlOJG-19" target="pjii15zYUNtUu0hRlOJG-22" edge="1">
          <mxGeometry relative="1" as="geometry" />
        </mxCell>
        <mxCell id="pjii15zYUNtUu0hRlOJG-19" value="Start&lt;br&gt;(ad_order)" style="rounded=1;whiteSpace=wrap;html=1;fillColor=#fff2cc;strokeColor=#d6b656;" parent="1" vertex="1">
          <mxGeometry x="787.5" y="420" width="120" height="37.5" as="geometry" />
        </mxCell>
        <mxCell id="pjii15zYUNtUu0hRlOJG-20" value="False" style="edgeStyle=orthogonalEdgeStyle;rounded=0;orthogonalLoop=1;jettySize=auto;html=1;entryX=0.5;entryY=0;entryDx=0;entryDy=0;" parent="1" source="pjii15zYUNtUu0hRlOJG-22" target="pjii15zYUNtUu0hRlOJG-24" edge="1">
          <mxGeometry relative="1" as="geometry" />
        </mxCell>
        <mxCell id="pjii15zYUNtUu0hRlOJG-21" value="True" style="edgeStyle=orthogonalEdgeStyle;rounded=0;orthogonalLoop=1;jettySize=auto;html=1;" parent="1" source="pjii15zYUNtUu0hRlOJG-22" target="pjii15zYUNtUu0hRlOJG-26" edge="1">
          <mxGeometry relative="1" as="geometry" />
        </mxCell>
        <mxCell id="pjii15zYUNtUu0hRlOJG-22" value="If &lt;br&gt;track_var.get()&lt;br&gt;==1" style="rhombus;whiteSpace=wrap;html=1;fillColor=#f8cecc;strokeColor=#b85450;" parent="1" vertex="1">
          <mxGeometry x="952.5" y="393.75" width="110" height="90" as="geometry" />
        </mxCell>
        <mxCell id="pjii15zYUNtUu0hRlOJG-23" style="edgeStyle=orthogonalEdgeStyle;rounded=0;orthogonalLoop=1;jettySize=auto;html=1;" parent="1" source="pjii15zYUNtUu0hRlOJG-24" target="pjii15zYUNtUu0hRlOJG-31" edge="1">
          <mxGeometry relative="1" as="geometry" />
        </mxCell>
        <mxCell id="pjii15zYUNtUu0hRlOJG-24" value="Messagebox:&lt;br&gt;&quot;Please make an order&quot;" style="shape=parallelogram;perimeter=parallelogramPerimeter;whiteSpace=wrap;html=1;fixedSize=1;fillColor=#1ba1e2;strokeColor=#006EAF;fontColor=#ffffff;" parent="1" vertex="1">
          <mxGeometry x="932.5" y="520" width="150" height="60" as="geometry" />
        </mxCell>
        <mxCell id="pjii15zYUNtUu0hRlOJG-25" style="edgeStyle=orthogonalEdgeStyle;rounded=0;orthogonalLoop=1;jettySize=auto;html=1;" parent="1" source="pjii15zYUNtUu0hRlOJG-26" target="pjii15zYUNtUu0hRlOJG-28" edge="1">
          <mxGeometry relative="1" as="geometry" />
        </mxCell>
        <mxCell id="pjii15zYUNtUu0hRlOJG-26" value="store order into&lt;br&gt;order list.&lt;br&gt;total=total+Spinbox*order&lt;br&gt;set var:0(uncheck checkbox)&lt;br&gt;set spinbox to 1&lt;br&gt;found=True&lt;br&gt;clear box 4&amp;nbsp;&lt;br&gt;for loop order into scroll texted widget" style="rounded=0;whiteSpace=wrap;html=1;fillColor=#d5e8d4;strokeColor=#82b366;" parent="1" vertex="1">
          <mxGeometry x="1125" y="354.69" width="200" height="158.12" as="geometry" />
        </mxCell>
        <mxCell id="pjii15zYUNtUu0hRlOJG-48" style="edgeStyle=orthogonalEdgeStyle;rounded=0;orthogonalLoop=1;jettySize=auto;html=1;entryX=0;entryY=0.5;entryDx=0;entryDy=0;" parent="1" source="pjii15zYUNtUu0hRlOJG-28" target="pjii15zYUNtUu0hRlOJG-30" edge="1">
          <mxGeometry relative="1" as="geometry" />
        </mxCell>
        <mxCell id="pjii15zYUNtUu0hRlOJG-28" value="If found:" style="rhombus;whiteSpace=wrap;html=1;fillColor=#f8cecc;strokeColor=#b85450;" parent="1" vertex="1">
          <mxGeometry x="1360" y="389.37" width="110" height="90" as="geometry" />
        </mxCell>
        <mxCell id="pjii15zYUNtUu0hRlOJG-29" style="edgeStyle=orthogonalEdgeStyle;rounded=0;orthogonalLoop=1;jettySize=auto;html=1;" parent="1" source="pjii15zYUNtUu0hRlOJG-30" target="pjii15zYUNtUu0hRlOJG-32" edge="1">
          <mxGeometry relative="1" as="geometry" />
        </mxCell>
        <mxCell id="pjii15zYUNtUu0hRlOJG-30" value="Messagebox:&lt;br&gt;&quot;Your order&lt;br&gt;has been added&quot;" style="shape=parallelogram;perimeter=parallelogramPerimeter;whiteSpace=wrap;html=1;fixedSize=1;fillColor=#1ba1e2;strokeColor=#006EAF;fontColor=#ffffff;" parent="1" vertex="1">
          <mxGeometry x="1520" y="403.75" width="150" height="60" as="geometry" />
        </mxCell>
        <mxCell id="pjii15zYUNtUu0hRlOJG-31" value="End" style="rounded=1;whiteSpace=wrap;html=1;fillColor=#fff2cc;strokeColor=#d6b656;" parent="1" vertex="1">
          <mxGeometry x="947.5" y="605" width="120" height="30" as="geometry" />
        </mxCell>
        <mxCell id="pjii15zYUNtUu0hRlOJG-32" value="End" style="rounded=1;whiteSpace=wrap;html=1;fillColor=#fff2cc;strokeColor=#d6b656;" parent="1" vertex="1">
          <mxGeometry x="1535" y="483.75" width="120" height="26.25" as="geometry" />
        </mxCell>
        <mxCell id="pjii15zYUNtUu0hRlOJG-33" style="edgeStyle=orthogonalEdgeStyle;rounded=0;orthogonalLoop=1;jettySize=auto;html=1;" parent="1" source="pjii15zYUNtUu0hRlOJG-34" target="pjii15zYUNtUu0hRlOJG-37" edge="1">
          <mxGeometry relative="1" as="geometry" />
        </mxCell>
        <mxCell id="pjii15zYUNtUu0hRlOJG-34" value="Start&lt;br&gt;(Frame_3(remove_order))" style="rounded=1;whiteSpace=wrap;html=1;fillColor=#fff2cc;strokeColor=#d6b656;" parent="1" vertex="1">
          <mxGeometry x="750" y="698.7499999999999" width="190" height="37.5" as="geometry" />
        </mxCell>
        <mxCell id="pjii15zYUNtUu0hRlOJG-35" value="False" style="edgeStyle=orthogonalEdgeStyle;rounded=0;orthogonalLoop=1;jettySize=auto;html=1;entryX=0.5;entryY=0;entryDx=0;entryDy=0;" parent="1" source="pjii15zYUNtUu0hRlOJG-37" target="pjii15zYUNtUu0hRlOJG-39" edge="1">
          <mxGeometry relative="1" as="geometry" />
        </mxCell>
        <mxCell id="pjii15zYUNtUu0hRlOJG-36" value="True" style="edgeStyle=orthogonalEdgeStyle;rounded=0;orthogonalLoop=1;jettySize=auto;html=1;" parent="1" source="pjii15zYUNtUu0hRlOJG-37" target="pjii15zYUNtUu0hRlOJG-41" edge="1">
          <mxGeometry relative="1" as="geometry" />
        </mxCell>
        <mxCell id="pjii15zYUNtUu0hRlOJG-37" value="If &lt;br&gt;track_var.get()&lt;br&gt;==1" style="rhombus;whiteSpace=wrap;html=1;fillColor=#f8cecc;strokeColor=#b85450;" parent="1" vertex="1">
          <mxGeometry x="985" y="672.4999999999999" width="110" height="90" as="geometry" />
        </mxCell>
        <mxCell id="pjii15zYUNtUu0hRlOJG-38" style="edgeStyle=orthogonalEdgeStyle;rounded=0;orthogonalLoop=1;jettySize=auto;html=1;" parent="1" source="pjii15zYUNtUu0hRlOJG-39" target="pjii15zYUNtUu0hRlOJG-46" edge="1">
          <mxGeometry relative="1" as="geometry" />
        </mxCell>
        <mxCell id="pjii15zYUNtUu0hRlOJG-39" value="Messagebox:&lt;br&gt;&quot;Please make an order&quot;" style="shape=parallelogram;perimeter=parallelogramPerimeter;whiteSpace=wrap;html=1;fixedSize=1;fillColor=#1ba1e2;strokeColor=#006EAF;fontColor=#ffffff;" parent="1" vertex="1">
          <mxGeometry x="965" y="798.75" width="150" height="60" as="geometry" />
        </mxCell>
        <mxCell id="pjii15zYUNtUu0hRlOJG-40" style="edgeStyle=orthogonalEdgeStyle;rounded=0;orthogonalLoop=1;jettySize=auto;html=1;" parent="1" source="pjii15zYUNtUu0hRlOJG-41" target="pjii15zYUNtUu0hRlOJG-43" edge="1">
          <mxGeometry relative="1" as="geometry" />
        </mxCell>
        <mxCell id="pjii15zYUNtUu0hRlOJG-41" value="order.clear(specific order)&lt;br&gt;total=total-Spinbox*order&lt;br&gt;set var:0(uncheck checkbox)&lt;br&gt;set spinbox to 1&lt;br&gt;found=True&lt;br&gt;clear box 4&amp;nbsp;&lt;br style=&quot;border-color: var(--border-color);&quot;&gt;for loop order into scrolled text&lt;br&gt;widget" style="rounded=0;whiteSpace=wrap;html=1;fillColor=#d5e8d4;strokeColor=#82b366;" parent="1" vertex="1">
          <mxGeometry x="1145" y="647.82" width="200" height="140.62" as="geometry" />
        </mxCell>
        <mxCell id="pjii15zYUNtUu0hRlOJG-49" style="edgeStyle=orthogonalEdgeStyle;rounded=0;orthogonalLoop=1;jettySize=auto;html=1;entryX=0;entryY=0.5;entryDx=0;entryDy=0;" parent="1" source="pjii15zYUNtUu0hRlOJG-43" target="pjii15zYUNtUu0hRlOJG-45" edge="1">
          <mxGeometry relative="1" as="geometry" />
        </mxCell>
        <mxCell id="pjii15zYUNtUu0hRlOJG-43" value="If found:" style="rhombus;whiteSpace=wrap;html=1;fillColor=#f8cecc;strokeColor=#b85450;" parent="1" vertex="1">
          <mxGeometry x="1395" y="672.51" width="110" height="90" as="geometry" />
        </mxCell>
        <mxCell id="pjii15zYUNtUu0hRlOJG-50" style="edgeStyle=orthogonalEdgeStyle;rounded=0;orthogonalLoop=1;jettySize=auto;html=1;entryX=0;entryY=0.5;entryDx=0;entryDy=0;" parent="1" source="pjii15zYUNtUu0hRlOJG-45" target="pjii15zYUNtUu0hRlOJG-47" edge="1">
          <mxGeometry relative="1" as="geometry" />
        </mxCell>
        <mxCell id="pjii15zYUNtUu0hRlOJG-45" value="Messagebox:&lt;br&gt;&quot;Your order&lt;br&gt;has been added&quot;" style="shape=parallelogram;perimeter=parallelogramPerimeter;whiteSpace=wrap;html=1;fixedSize=1;fillColor=#1ba1e2;strokeColor=#006EAF;fontColor=#ffffff;" parent="1" vertex="1">
          <mxGeometry x="1535" y="687.5099999999999" width="150" height="60" as="geometry" />
        </mxCell>
        <mxCell id="pjii15zYUNtUu0hRlOJG-46" value="End" style="rounded=1;whiteSpace=wrap;html=1;fillColor=#fff2cc;strokeColor=#d6b656;" parent="1" vertex="1">
          <mxGeometry x="980" y="883.75" width="120" height="30" as="geometry" />
        </mxCell>
        <mxCell id="pjii15zYUNtUu0hRlOJG-47" value="End" style="rounded=1;whiteSpace=wrap;html=1;fillColor=#fff2cc;strokeColor=#d6b656;" parent="1" vertex="1">
          <mxGeometry x="1720" y="703.1299999999999" width="120" height="30" as="geometry" />
        </mxCell>
        <mxCell id="pjii15zYUNtUu0hRlOJG-51" value="" style="whiteSpace=wrap;html=1;" parent="1" vertex="1">
          <mxGeometry x="730" y="930.94" width="1680" height="18.13" as="geometry" />
        </mxCell>
        <mxCell id="pjii15zYUNtUu0hRlOJG-57" style="edgeStyle=orthogonalEdgeStyle;rounded=0;orthogonalLoop=1;jettySize=auto;html=1;" parent="1" source="pjii15zYUNtUu0hRlOJG-55" target="sWIOzSoLqstiNpKyMAqf-142" edge="1">
          <mxGeometry relative="1" as="geometry" />
        </mxCell>
        <mxCell id="pjii15zYUNtUu0hRlOJG-55" value="Widget: text" style="shape=parallelogram;perimeter=parallelogramPerimeter;whiteSpace=wrap;html=1;fixedSize=1;fillColor=#dae8fc;strokeColor=#6c8ebf;" parent="1" vertex="1">
          <mxGeometry x="1400" y="1001.8800000000001" width="150" height="60" as="geometry" />
        </mxCell>
        <mxCell id="pjii15zYUNtUu0hRlOJG-61" style="edgeStyle=orthogonalEdgeStyle;rounded=0;orthogonalLoop=1;jettySize=auto;html=1;entryX=0;entryY=0.5;entryDx=0;entryDy=0;" parent="1" source="pjii15zYUNtUu0hRlOJG-59" target="sWIOzSoLqstiNpKyMAqf-264" edge="1">
          <mxGeometry relative="1" as="geometry" />
        </mxCell>
        <mxCell id="pjii15zYUNtUu0hRlOJG-59" value="Widget: text" style="shape=parallelogram;perimeter=parallelogramPerimeter;whiteSpace=wrap;html=1;fixedSize=1;fillColor=#dae8fc;strokeColor=#6c8ebf;" parent="1" vertex="1">
          <mxGeometry x="1455" y="1411.88" width="150" height="60" as="geometry" />
        </mxCell>
        <mxCell id="pjii15zYUNtUu0hRlOJG-65" style="edgeStyle=orthogonalEdgeStyle;rounded=0;orthogonalLoop=1;jettySize=auto;html=1;entryX=0;entryY=0.5;entryDx=0;entryDy=0;" parent="1" source="pjii15zYUNtUu0hRlOJG-62" target="sWIOzSoLqstiNpKyMAqf-340" edge="1">
          <mxGeometry relative="1" as="geometry" />
        </mxCell>
        <mxCell id="pjii15zYUNtUu0hRlOJG-62" value="Widget: text" style="shape=parallelogram;perimeter=parallelogramPerimeter;whiteSpace=wrap;html=1;fixedSize=1;fillColor=#dae8fc;strokeColor=#6c8ebf;" parent="1" vertex="1">
          <mxGeometry x="1450" y="1831.88" width="150" height="60" as="geometry" />
        </mxCell>
        <mxCell id="pjii15zYUNtUu0hRlOJG-68" style="edgeStyle=orthogonalEdgeStyle;rounded=0;orthogonalLoop=1;jettySize=auto;html=1;" parent="1" source="pjii15zYUNtUu0hRlOJG-67" target="sWIOzSoLqstiNpKyMAqf-402" edge="1">
          <mxGeometry relative="1" as="geometry" />
        </mxCell>
        <mxCell id="pjii15zYUNtUu0hRlOJG-67" value="Widget: text" style="shape=parallelogram;perimeter=parallelogramPerimeter;whiteSpace=wrap;html=1;fixedSize=1;fillColor=#dae8fc;strokeColor=#6c8ebf;" parent="1" vertex="1">
          <mxGeometry x="1427.5" y="2231.88" width="150" height="60" as="geometry" />
        </mxCell>
        <mxCell id="cWhjbkL9U8iKRouWhas2-4" style="edgeStyle=orthogonalEdgeStyle;rounded=0;orthogonalLoop=1;jettySize=auto;html=1;" edge="1" parent="1" source="cWhjbkL9U8iKRouWhas2-1" target="cWhjbkL9U8iKRouWhas2-3">
          <mxGeometry relative="1" as="geometry" />
        </mxCell>
        <mxCell id="cWhjbkL9U8iKRouWhas2-1" value="Start&lt;br&gt;(confirm)" style="rounded=1;whiteSpace=wrap;html=1;fillColor=#fff2cc;strokeColor=#d6b656;" vertex="1" parent="1">
          <mxGeometry x="-160" y="478.13" width="120" height="37.5" as="geometry" />
        </mxCell>
        <mxCell id="cWhjbkL9U8iKRouWhas2-7" value="True" style="edgeStyle=orthogonalEdgeStyle;rounded=0;orthogonalLoop=1;jettySize=auto;html=1;" edge="1" parent="1" source="cWhjbkL9U8iKRouWhas2-2" target="cWhjbkL9U8iKRouWhas2-6">
          <mxGeometry relative="1" as="geometry" />
        </mxCell>
        <mxCell id="cWhjbkL9U8iKRouWhas2-24" value="False" style="edgeStyle=orthogonalEdgeStyle;rounded=0;orthogonalLoop=1;jettySize=auto;html=1;entryX=0.5;entryY=0;entryDx=0;entryDy=0;" edge="1" parent="1" source="cWhjbkL9U8iKRouWhas2-2" target="cWhjbkL9U8iKRouWhas2-25">
          <mxGeometry relative="1" as="geometry">
            <mxPoint x="225" y="590" as="targetPoint" />
          </mxGeometry>
        </mxCell>
        <mxCell id="cWhjbkL9U8iKRouWhas2-2" value="If ac_account&lt;br&gt;or password&amp;nbsp;&lt;br&gt;is empty" style="rhombus;whiteSpace=wrap;html=1;fillColor=#f8cecc;strokeColor=#b85450;" vertex="1" parent="1">
          <mxGeometry x="160" y="443.44" width="130.62" height="106.87" as="geometry" />
        </mxCell>
        <mxCell id="cWhjbkL9U8iKRouWhas2-5" style="edgeStyle=orthogonalEdgeStyle;rounded=0;orthogonalLoop=1;jettySize=auto;html=1;" edge="1" parent="1" source="cWhjbkL9U8iKRouWhas2-3" target="cWhjbkL9U8iKRouWhas2-2">
          <mxGeometry relative="1" as="geometry" />
        </mxCell>
        <mxCell id="cWhjbkL9U8iKRouWhas2-3" value="Global found,ac_account and password&lt;br&gt;ac_acount=entry name.get()&lt;br&gt;password=&lt;br&gt;entry_pass.get()&lt;br&gt;found=False" style="rounded=0;whiteSpace=wrap;html=1;fillColor=#d5e8d4;strokeColor=#82b366;" vertex="1" parent="1">
          <mxGeometry x="7" y="436.88" width="120" height="120" as="geometry" />
        </mxCell>
        <mxCell id="cWhjbkL9U8iKRouWhas2-9" style="edgeStyle=orthogonalEdgeStyle;rounded=0;orthogonalLoop=1;jettySize=auto;html=1;" edge="1" parent="1" source="cWhjbkL9U8iKRouWhas2-6" target="cWhjbkL9U8iKRouWhas2-8">
          <mxGeometry relative="1" as="geometry" />
        </mxCell>
        <mxCell id="cWhjbkL9U8iKRouWhas2-6" value="Widget label:&lt;br&gt;&quot;Please make &lt;br&gt;and order&quot;&lt;br&gt;found=True" style="shape=parallelogram;perimeter=parallelogramPerimeter;whiteSpace=wrap;html=1;fixedSize=1;fillColor=#1ba1e2;strokeColor=#006EAF;fontColor=#ffffff;" vertex="1" parent="1">
          <mxGeometry x="328" y="466.88" width="150" height="60" as="geometry" />
        </mxCell>
        <mxCell id="cWhjbkL9U8iKRouWhas2-8" value="End" style="rounded=1;whiteSpace=wrap;html=1;fillColor=#fff2cc;strokeColor=#d6b656;" vertex="1" parent="1">
          <mxGeometry x="510" y="482.5" width="120" height="27.5" as="geometry" />
        </mxCell>
        <mxCell id="cWhjbkL9U8iKRouWhas2-10" style="edgeStyle=orthogonalEdgeStyle;rounded=0;orthogonalLoop=1;jettySize=auto;html=1;" edge="1" parent="1" source="cWhjbkL9U8iKRouWhas2-11" target="cWhjbkL9U8iKRouWhas2-15">
          <mxGeometry relative="1" as="geometry" />
        </mxCell>
        <mxCell id="cWhjbkL9U8iKRouWhas2-11" value="Start&lt;br&gt;(confirm_login)" style="rounded=1;whiteSpace=wrap;html=1;fillColor=#fff2cc;strokeColor=#d6b656;" vertex="1" parent="1">
          <mxGeometry x="-170" y="663.75" width="120" height="37.5" as="geometry" />
        </mxCell>
        <mxCell id="cWhjbkL9U8iKRouWhas2-20" value="True" style="edgeStyle=orthogonalEdgeStyle;rounded=0;orthogonalLoop=1;jettySize=auto;html=1;" edge="1" parent="1" source="cWhjbkL9U8iKRouWhas2-13">
          <mxGeometry relative="1" as="geometry">
            <mxPoint x="369.9901960784314" y="682.5294117647059" as="targetPoint" />
          </mxGeometry>
        </mxCell>
        <mxCell id="cWhjbkL9U8iKRouWhas2-65" value="False" style="edgeStyle=orthogonalEdgeStyle;rounded=0;orthogonalLoop=1;jettySize=auto;html=1;" edge="1" parent="1" source="cWhjbkL9U8iKRouWhas2-13" target="cWhjbkL9U8iKRouWhas2-64">
          <mxGeometry relative="1" as="geometry" />
        </mxCell>
        <mxCell id="cWhjbkL9U8iKRouWhas2-13" value="If ac_password=pass&lt;br&gt;and ac_account=&lt;br&gt;account login" style="rhombus;whiteSpace=wrap;html=1;fillColor=#f8cecc;strokeColor=#b85450;" vertex="1" parent="1">
          <mxGeometry x="170" y="627.97" width="150" height="109.05" as="geometry" />
        </mxCell>
        <mxCell id="cWhjbkL9U8iKRouWhas2-14" style="edgeStyle=orthogonalEdgeStyle;rounded=0;orthogonalLoop=1;jettySize=auto;html=1;" edge="1" parent="1" source="cWhjbkL9U8iKRouWhas2-15" target="cWhjbkL9U8iKRouWhas2-13">
          <mxGeometry relative="1" as="geometry" />
        </mxCell>
        <mxCell id="cWhjbkL9U8iKRouWhas2-15" value="Global found2&lt;br&gt;found2=false&lt;br&gt;Open txt file as file.&lt;br&gt;work=file.readlines&lt;br&gt;account login,ac_password=&lt;br&gt;split,strip work" style="rounded=0;whiteSpace=wrap;html=1;fillColor=#d5e8d4;strokeColor=#82b366;" vertex="1" parent="1">
          <mxGeometry x="10" y="605" width="120" height="155" as="geometry" />
        </mxCell>
        <mxCell id="cWhjbkL9U8iKRouWhas2-18" value="End" style="rounded=1;whiteSpace=wrap;html=1;fillColor=#fff2cc;strokeColor=#d6b656;" vertex="1" parent="1">
          <mxGeometry x="540" y="666.26" width="120" height="27.5" as="geometry" />
        </mxCell>
        <mxCell id="cWhjbkL9U8iKRouWhas2-22" style="edgeStyle=orthogonalEdgeStyle;rounded=0;orthogonalLoop=1;jettySize=auto;html=1;" edge="1" parent="1" source="cWhjbkL9U8iKRouWhas2-21" target="cWhjbkL9U8iKRouWhas2-18">
          <mxGeometry relative="1" as="geometry" />
        </mxCell>
        <mxCell id="cWhjbkL9U8iKRouWhas2-21" value="found2=True" style="rounded=0;whiteSpace=wrap;html=1;fillColor=#d5e8d4;strokeColor=#82b366;" vertex="1" parent="1">
          <mxGeometry x="370" y="658.76" width="120" height="42.49" as="geometry" />
        </mxCell>
        <mxCell id="cWhjbkL9U8iKRouWhas2-25" value="End" style="rounded=1;whiteSpace=wrap;html=1;fillColor=#fff2cc;strokeColor=#d6b656;" vertex="1" parent="1">
          <mxGeometry x="165.31" y="590" width="120" height="27.5" as="geometry" />
        </mxCell>
        <mxCell id="cWhjbkL9U8iKRouWhas2-27" value="End" style="rounded=1;whiteSpace=wrap;html=1;fillColor=#fff2cc;strokeColor=#d6b656;" vertex="1" parent="1">
          <mxGeometry x="185" y="856.25" width="120" height="27.5" as="geometry" />
        </mxCell>
        <mxCell id="cWhjbkL9U8iKRouWhas2-29" style="edgeStyle=orthogonalEdgeStyle;rounded=0;orthogonalLoop=1;jettySize=auto;html=1;" edge="1" parent="1" source="cWhjbkL9U8iKRouWhas2-30" target="cWhjbkL9U8iKRouWhas2-42">
          <mxGeometry relative="1" as="geometry">
            <mxPoint x="-10" y="979.3970588235295" as="targetPoint" />
          </mxGeometry>
        </mxCell>
        <mxCell id="cWhjbkL9U8iKRouWhas2-30" value="Start&lt;br&gt;(Login function)" style="rounded=1;whiteSpace=wrap;html=1;fillColor=#fff2cc;strokeColor=#d6b656;" vertex="1" parent="1">
          <mxGeometry x="-170" y="960.63" width="120" height="37.5" as="geometry" />
        </mxCell>
        <mxCell id="cWhjbkL9U8iKRouWhas2-34" value="False" style="edgeStyle=orthogonalEdgeStyle;rounded=0;orthogonalLoop=1;jettySize=auto;html=1;" edge="1" parent="1" source="cWhjbkL9U8iKRouWhas2-36" target="cWhjbkL9U8iKRouWhas2-38">
          <mxGeometry relative="1" as="geometry" />
        </mxCell>
        <mxCell id="cWhjbkL9U8iKRouWhas2-46" value="True" style="edgeStyle=orthogonalEdgeStyle;rounded=0;orthogonalLoop=1;jettySize=auto;html=1;entryX=0.5;entryY=0;entryDx=0;entryDy=0;" edge="1" parent="1" source="cWhjbkL9U8iKRouWhas2-36" target="cWhjbkL9U8iKRouWhas2-45">
          <mxGeometry relative="1" as="geometry" />
        </mxCell>
        <mxCell id="cWhjbkL9U8iKRouWhas2-36" value="if found" style="rhombus;whiteSpace=wrap;html=1;fillColor=#f8cecc;strokeColor=#b85450;" vertex="1" parent="1">
          <mxGeometry x="165" y="934.38" width="110" height="90" as="geometry" />
        </mxCell>
        <mxCell id="cWhjbkL9U8iKRouWhas2-66" style="edgeStyle=orthogonalEdgeStyle;rounded=0;orthogonalLoop=1;jettySize=auto;html=1;" edge="1" parent="1" source="cWhjbkL9U8iKRouWhas2-38" target="cWhjbkL9U8iKRouWhas2-61">
          <mxGeometry relative="1" as="geometry" />
        </mxCell>
        <mxCell id="cWhjbkL9U8iKRouWhas2-38" value="Run confirm&amp;nbsp;&lt;br&gt;function" style="rounded=0;whiteSpace=wrap;html=1;fillColor=#d5e8d4;strokeColor=#82b366;" vertex="1" parent="1">
          <mxGeometry x="325" y="949.38" width="95" height="60" as="geometry" />
        </mxCell>
        <mxCell id="cWhjbkL9U8iKRouWhas2-43" style="edgeStyle=orthogonalEdgeStyle;rounded=0;orthogonalLoop=1;jettySize=auto;html=1;" edge="1" parent="1" source="cWhjbkL9U8iKRouWhas2-42" target="cWhjbkL9U8iKRouWhas2-36">
          <mxGeometry relative="1" as="geometry" />
        </mxCell>
        <mxCell id="cWhjbkL9U8iKRouWhas2-42" value="Run confirm order&amp;nbsp;&lt;br&gt;function" style="rounded=0;whiteSpace=wrap;html=1;fillColor=#d5e8d4;strokeColor=#82b366;" vertex="1" parent="1">
          <mxGeometry x="5" y="949.38" width="120" height="60" as="geometry" />
        </mxCell>
        <mxCell id="cWhjbkL9U8iKRouWhas2-45" value="End" style="rounded=1;whiteSpace=wrap;html=1;fillColor=#fff2cc;strokeColor=#d6b656;" vertex="1" parent="1">
          <mxGeometry x="160" y="1072.5" width="120" height="30" as="geometry" />
        </mxCell>
        <mxCell id="cWhjbkL9U8iKRouWhas2-79" value="True" style="edgeStyle=orthogonalEdgeStyle;rounded=0;orthogonalLoop=1;jettySize=auto;html=1;entryX=0;entryY=0.5;entryDx=0;entryDy=0;" edge="1" parent="1" source="cWhjbkL9U8iKRouWhas2-61" target="cWhjbkL9U8iKRouWhas2-80">
          <mxGeometry relative="1" as="geometry">
            <mxPoint x="600" y="979.3800000000001" as="targetPoint" />
          </mxGeometry>
        </mxCell>
        <mxCell id="cWhjbkL9U8iKRouWhas2-84" style="edgeStyle=orthogonalEdgeStyle;rounded=0;orthogonalLoop=1;jettySize=auto;html=1;entryX=0.5;entryY=0;entryDx=0;entryDy=0;" edge="1" parent="1" source="cWhjbkL9U8iKRouWhas2-61" target="cWhjbkL9U8iKRouWhas2-83">
          <mxGeometry relative="1" as="geometry" />
        </mxCell>
        <mxCell id="cWhjbkL9U8iKRouWhas2-61" value="if found2" style="rhombus;whiteSpace=wrap;html=1;fillColor=#f8cecc;strokeColor=#b85450;" vertex="1" parent="1">
          <mxGeometry x="450" y="934.38" width="110" height="90" as="geometry" />
        </mxCell>
        <mxCell id="cWhjbkL9U8iKRouWhas2-67" style="edgeStyle=orthogonalEdgeStyle;rounded=0;orthogonalLoop=1;jettySize=auto;html=1;" edge="1" parent="1" source="cWhjbkL9U8iKRouWhas2-64" target="cWhjbkL9U8iKRouWhas2-27">
          <mxGeometry relative="1" as="geometry" />
        </mxCell>
        <mxCell id="cWhjbkL9U8iKRouWhas2-64" value="Messagebox:&lt;br&gt;&quot;Please make an order&quot;" style="shape=parallelogram;perimeter=parallelogramPerimeter;whiteSpace=wrap;html=1;fixedSize=1;fillColor=#1ba1e2;strokeColor=#006EAF;fontColor=#ffffff;" vertex="1" parent="1">
          <mxGeometry x="170" y="773.76" width="150" height="60" as="geometry" />
        </mxCell>
        <mxCell id="cWhjbkL9U8iKRouWhas2-82" style="edgeStyle=orthogonalEdgeStyle;rounded=0;orthogonalLoop=1;jettySize=auto;html=1;" edge="1" parent="1" source="cWhjbkL9U8iKRouWhas2-80" target="cWhjbkL9U8iKRouWhas2-81">
          <mxGeometry relative="1" as="geometry" />
        </mxCell>
        <mxCell id="cWhjbkL9U8iKRouWhas2-80" value="Run frame2&lt;br&gt;function" style="rounded=0;whiteSpace=wrap;html=1;fillColor=#d5e8d4;strokeColor=#82b366;" vertex="1" parent="1">
          <mxGeometry x="605" y="949.38" width="95" height="60" as="geometry" />
        </mxCell>
        <mxCell id="cWhjbkL9U8iKRouWhas2-81" value="End" style="rounded=1;whiteSpace=wrap;html=1;fillColor=#fff2cc;strokeColor=#d6b656;" vertex="1" parent="1">
          <mxGeometry x="607.5" y="1042.5" width="90" height="30" as="geometry" />
        </mxCell>
        <mxCell id="cWhjbkL9U8iKRouWhas2-83" value="End" style="rounded=1;whiteSpace=wrap;html=1;fillColor=#fff2cc;strokeColor=#d6b656;" vertex="1" parent="1">
          <mxGeometry x="445" y="1062.51" width="120" height="30" as="geometry" />
        </mxCell>
        <mxCell id="cWhjbkL9U8iKRouWhas2-85" style="edgeStyle=orthogonalEdgeStyle;rounded=0;orthogonalLoop=1;jettySize=auto;html=1;" edge="1" parent="1" source="cWhjbkL9U8iKRouWhas2-86" target="cWhjbkL9U8iKRouWhas2-93">
          <mxGeometry relative="1" as="geometry">
            <mxPoint x="-10" y="1188.7770588235294" as="targetPoint" />
          </mxGeometry>
        </mxCell>
        <mxCell id="cWhjbkL9U8iKRouWhas2-86" value="Start&lt;br&gt;(remove password)&lt;br&gt;function" style="rounded=1;whiteSpace=wrap;html=1;fillColor=#fff2cc;strokeColor=#d6b656;" vertex="1" parent="1">
          <mxGeometry x="-170" y="1140" width="120" height="67.51" as="geometry" />
        </mxCell>
        <mxCell id="cWhjbkL9U8iKRouWhas2-87" value="False" style="edgeStyle=orthogonalEdgeStyle;rounded=0;orthogonalLoop=1;jettySize=auto;html=1;" edge="1" parent="1" source="cWhjbkL9U8iKRouWhas2-89" target="cWhjbkL9U8iKRouWhas2-91">
          <mxGeometry relative="1" as="geometry" />
        </mxCell>
        <mxCell id="cWhjbkL9U8iKRouWhas2-88" value="True" style="edgeStyle=orthogonalEdgeStyle;rounded=0;orthogonalLoop=1;jettySize=auto;html=1;entryX=0.5;entryY=0;entryDx=0;entryDy=0;" edge="1" parent="1" source="cWhjbkL9U8iKRouWhas2-89" target="cWhjbkL9U8iKRouWhas2-94">
          <mxGeometry relative="1" as="geometry" />
        </mxCell>
        <mxCell id="cWhjbkL9U8iKRouWhas2-89" value="if found" style="rhombus;whiteSpace=wrap;html=1;fillColor=#f8cecc;strokeColor=#b85450;" vertex="1" parent="1">
          <mxGeometry x="165" y="1143.7599999999998" width="110" height="90" as="geometry" />
        </mxCell>
        <mxCell id="cWhjbkL9U8iKRouWhas2-90" style="edgeStyle=orthogonalEdgeStyle;rounded=0;orthogonalLoop=1;jettySize=auto;html=1;" edge="1" parent="1" source="cWhjbkL9U8iKRouWhas2-91" target="cWhjbkL9U8iKRouWhas2-97">
          <mxGeometry relative="1" as="geometry" />
        </mxCell>
        <mxCell id="cWhjbkL9U8iKRouWhas2-91" value="Run confirm&amp;nbsp;&lt;br&gt;function" style="rounded=0;whiteSpace=wrap;html=1;fillColor=#d5e8d4;strokeColor=#82b366;" vertex="1" parent="1">
          <mxGeometry x="325" y="1158.7599999999998" width="95" height="60" as="geometry" />
        </mxCell>
        <mxCell id="cWhjbkL9U8iKRouWhas2-92" style="edgeStyle=orthogonalEdgeStyle;rounded=0;orthogonalLoop=1;jettySize=auto;html=1;" edge="1" parent="1" source="cWhjbkL9U8iKRouWhas2-93" target="cWhjbkL9U8iKRouWhas2-89">
          <mxGeometry relative="1" as="geometry" />
        </mxCell>
        <mxCell id="cWhjbkL9U8iKRouWhas2-93" value="Run confirm order&amp;nbsp;&lt;br&gt;function" style="rounded=0;whiteSpace=wrap;html=1;fillColor=#d5e8d4;strokeColor=#82b366;" vertex="1" parent="1">
          <mxGeometry x="5" y="1158.7599999999998" width="120" height="60" as="geometry" />
        </mxCell>
        <mxCell id="cWhjbkL9U8iKRouWhas2-94" value="End" style="rounded=1;whiteSpace=wrap;html=1;fillColor=#fff2cc;strokeColor=#d6b656;" vertex="1" parent="1">
          <mxGeometry x="160" y="1281.8799999999999" width="120" height="30" as="geometry" />
        </mxCell>
        <mxCell id="cWhjbkL9U8iKRouWhas2-95" value="True" style="edgeStyle=orthogonalEdgeStyle;rounded=0;orthogonalLoop=1;jettySize=auto;html=1;entryX=0;entryY=0.5;entryDx=0;entryDy=0;" edge="1" parent="1" source="cWhjbkL9U8iKRouWhas2-97" target="cWhjbkL9U8iKRouWhas2-99">
          <mxGeometry relative="1" as="geometry">
            <mxPoint x="600" y="1188.76" as="targetPoint" />
          </mxGeometry>
        </mxCell>
        <mxCell id="cWhjbkL9U8iKRouWhas2-96" style="edgeStyle=orthogonalEdgeStyle;rounded=0;orthogonalLoop=1;jettySize=auto;html=1;entryX=0.5;entryY=0;entryDx=0;entryDy=0;" edge="1" parent="1" source="cWhjbkL9U8iKRouWhas2-97" target="cWhjbkL9U8iKRouWhas2-101">
          <mxGeometry relative="1" as="geometry" />
        </mxCell>
        <mxCell id="cWhjbkL9U8iKRouWhas2-97" value="if found2" style="rhombus;whiteSpace=wrap;html=1;fillColor=#f8cecc;strokeColor=#b85450;" vertex="1" parent="1">
          <mxGeometry x="450" y="1143.7599999999998" width="110" height="90" as="geometry" />
        </mxCell>
        <mxCell id="cWhjbkL9U8iKRouWhas2-98" style="edgeStyle=orthogonalEdgeStyle;rounded=0;orthogonalLoop=1;jettySize=auto;html=1;" edge="1" parent="1" source="cWhjbkL9U8iKRouWhas2-99" target="cWhjbkL9U8iKRouWhas2-100">
          <mxGeometry relative="1" as="geometry" />
        </mxCell>
        <mxCell id="cWhjbkL9U8iKRouWhas2-99" value="Open txt file&lt;br&gt;clear txt file" style="rounded=0;whiteSpace=wrap;html=1;fillColor=#d5e8d4;strokeColor=#82b366;" vertex="1" parent="1">
          <mxGeometry x="605" y="1158.7599999999998" width="95" height="60" as="geometry" />
        </mxCell>
        <mxCell id="cWhjbkL9U8iKRouWhas2-100" value="End" style="rounded=1;whiteSpace=wrap;html=1;fillColor=#fff2cc;strokeColor=#d6b656;" vertex="1" parent="1">
          <mxGeometry x="607.5" y="1251.8799999999999" width="90" height="30" as="geometry" />
        </mxCell>
        <mxCell id="cWhjbkL9U8iKRouWhas2-101" value="End" style="rounded=1;whiteSpace=wrap;html=1;fillColor=#fff2cc;strokeColor=#d6b656;" vertex="1" parent="1">
          <mxGeometry x="445" y="1271.8899999999999" width="120" height="30" as="geometry" />
        </mxCell>
        <mxCell id="cWhjbkL9U8iKRouWhas2-102" style="edgeStyle=orthogonalEdgeStyle;rounded=0;orthogonalLoop=1;jettySize=auto;html=1;" edge="1" parent="1" source="cWhjbkL9U8iKRouWhas2-103" target="cWhjbkL9U8iKRouWhas2-110">
          <mxGeometry relative="1" as="geometry">
            <mxPoint x="-12.5" y="1382.5270588235294" as="targetPoint" />
          </mxGeometry>
        </mxCell>
        <mxCell id="cWhjbkL9U8iKRouWhas2-103" value="Start&lt;br&gt;(add_acc)&lt;br&gt;fuction" style="rounded=1;whiteSpace=wrap;html=1;fillColor=#fff2cc;strokeColor=#d6b656;" vertex="1" parent="1">
          <mxGeometry x="-172.5" y="1363.7599999999998" width="120" height="37.5" as="geometry" />
        </mxCell>
        <mxCell id="cWhjbkL9U8iKRouWhas2-105" value="True" style="edgeStyle=orthogonalEdgeStyle;rounded=0;orthogonalLoop=1;jettySize=auto;html=1;entryX=0.5;entryY=0;entryDx=0;entryDy=0;" edge="1" parent="1" source="cWhjbkL9U8iKRouWhas2-106" target="cWhjbkL9U8iKRouWhas2-111">
          <mxGeometry relative="1" as="geometry" />
        </mxCell>
        <mxCell id="cWhjbkL9U8iKRouWhas2-121" value="True" style="edgeStyle=orthogonalEdgeStyle;rounded=0;orthogonalLoop=1;jettySize=auto;html=1;entryX=0;entryY=0.5;entryDx=0;entryDy=0;" edge="1" parent="1" source="cWhjbkL9U8iKRouWhas2-106" target="cWhjbkL9U8iKRouWhas2-119">
          <mxGeometry relative="1" as="geometry" />
        </mxCell>
        <mxCell id="cWhjbkL9U8iKRouWhas2-106" value="if not found" style="rhombus;whiteSpace=wrap;html=1;fillColor=#f8cecc;strokeColor=#b85450;" vertex="1" parent="1">
          <mxGeometry x="162.5" y="1337.5099999999998" width="110" height="90" as="geometry" />
        </mxCell>
        <mxCell id="cWhjbkL9U8iKRouWhas2-109" style="edgeStyle=orthogonalEdgeStyle;rounded=0;orthogonalLoop=1;jettySize=auto;html=1;" edge="1" parent="1" source="cWhjbkL9U8iKRouWhas2-110" target="cWhjbkL9U8iKRouWhas2-106">
          <mxGeometry relative="1" as="geometry" />
        </mxCell>
        <mxCell id="cWhjbkL9U8iKRouWhas2-110" value="Run confirm order&amp;nbsp;&lt;br&gt;function" style="rounded=0;whiteSpace=wrap;html=1;fillColor=#d5e8d4;strokeColor=#82b366;" vertex="1" parent="1">
          <mxGeometry x="2.5" y="1352.5099999999998" width="120" height="60" as="geometry" />
        </mxCell>
        <mxCell id="cWhjbkL9U8iKRouWhas2-111" value="End" style="rounded=1;whiteSpace=wrap;html=1;fillColor=#fff2cc;strokeColor=#d6b656;" vertex="1" parent="1">
          <mxGeometry x="157.5" y="1475.6299999999999" width="120" height="30" as="geometry" />
        </mxCell>
        <mxCell id="cWhjbkL9U8iKRouWhas2-122" style="edgeStyle=orthogonalEdgeStyle;rounded=0;orthogonalLoop=1;jettySize=auto;html=1;entryX=0;entryY=0.5;entryDx=0;entryDy=0;" edge="1" parent="1" source="cWhjbkL9U8iKRouWhas2-119" target="cWhjbkL9U8iKRouWhas2-120">
          <mxGeometry relative="1" as="geometry" />
        </mxCell>
        <mxCell id="cWhjbkL9U8iKRouWhas2-119" value="Open txt file&lt;br&gt;store account&lt;br&gt;name and password into txt" style="rounded=0;whiteSpace=wrap;html=1;fillColor=#d5e8d4;strokeColor=#82b366;" vertex="1" parent="1">
          <mxGeometry x="340" y="1352.5099999999998" width="95" height="60" as="geometry" />
        </mxCell>
        <mxCell id="cWhjbkL9U8iKRouWhas2-124" style="edgeStyle=orthogonalEdgeStyle;rounded=0;orthogonalLoop=1;jettySize=auto;html=1;entryX=0.5;entryY=0;entryDx=0;entryDy=0;" edge="1" parent="1" source="cWhjbkL9U8iKRouWhas2-120" target="cWhjbkL9U8iKRouWhas2-123">
          <mxGeometry relative="1" as="geometry" />
        </mxCell>
        <mxCell id="cWhjbkL9U8iKRouWhas2-120" value="messagebox:&lt;br&gt;&quot;account name and pas&lt;br&gt;sword has been added&quot;" style="shape=parallelogram;perimeter=parallelogramPerimeter;whiteSpace=wrap;html=1;fixedSize=1;fillColor=#1ba1e2;strokeColor=#006EAF;fontColor=#ffffff;" vertex="1" parent="1">
          <mxGeometry x="460" y="1351.8799999999999" width="195" height="60" as="geometry" />
        </mxCell>
        <mxCell id="cWhjbkL9U8iKRouWhas2-123" value="End" style="rounded=1;whiteSpace=wrap;html=1;fillColor=#fff2cc;strokeColor=#d6b656;" vertex="1" parent="1">
          <mxGeometry x="497.5" y="1463.7499999999998" width="120" height="30" as="geometry" />
        </mxCell>
        <mxCell id="cWhjbkL9U8iKRouWhas2-125" value="Run upload function" style="rounded=0;whiteSpace=wrap;html=1;fillColor=#d5e8d4;strokeColor=#82b366;" vertex="1" parent="1">
          <mxGeometry x="2125" y="1011.88" width="120" height="39.99" as="geometry" />
        </mxCell>
        <mxCell id="cWhjbkL9U8iKRouWhas2-126" style="edgeStyle=orthogonalEdgeStyle;rounded=0;orthogonalLoop=1;jettySize=auto;html=1;exitX=0.5;exitY=1;exitDx=0;exitDy=0;" edge="1" parent="1" source="cWhjbkL9U8iKRouWhas2-125" target="cWhjbkL9U8iKRouWhas2-125">
          <mxGeometry relative="1" as="geometry" />
        </mxCell>
        <mxCell id="cWhjbkL9U8iKRouWhas2-131" style="edgeStyle=orthogonalEdgeStyle;rounded=0;orthogonalLoop=1;jettySize=auto;html=1;" edge="1" parent="1" source="cWhjbkL9U8iKRouWhas2-128" target="cWhjbkL9U8iKRouWhas2-130">
          <mxGeometry relative="1" as="geometry" />
        </mxCell>
        <mxCell id="cWhjbkL9U8iKRouWhas2-128" value="Start&lt;br&gt;Upload function" style="rounded=1;whiteSpace=wrap;html=1;fillColor=#fff2cc;strokeColor=#d6b656;" vertex="1" parent="1">
          <mxGeometry x="1930" y="420" width="120" height="37.5" as="geometry" />
        </mxCell>
        <mxCell id="cWhjbkL9U8iKRouWhas2-129" value="If &lt;br&gt;track_var.get()&lt;br&gt;==1" style="rhombus;whiteSpace=wrap;html=1;fillColor=#f8cecc;strokeColor=#b85450;" vertex="1" parent="1">
          <mxGeometry x="962.5" y="403.75" width="110" height="90" as="geometry" />
        </mxCell>
        <mxCell id="cWhjbkL9U8iKRouWhas2-133" style="edgeStyle=orthogonalEdgeStyle;rounded=0;orthogonalLoop=1;jettySize=auto;html=1;" edge="1" parent="1" source="cWhjbkL9U8iKRouWhas2-130" target="cWhjbkL9U8iKRouWhas2-132">
          <mxGeometry relative="1" as="geometry" />
        </mxCell>
        <mxCell id="cWhjbkL9U8iKRouWhas2-130" value="global box4&lt;br&gt;clear box4.&lt;br&gt;Insert for loop of order" style="rounded=0;whiteSpace=wrap;html=1;fillColor=#d5e8d4;strokeColor=#82b366;" vertex="1" parent="1">
          <mxGeometry x="2100" y="408.75" width="120" height="60" as="geometry" />
        </mxCell>
        <mxCell id="cWhjbkL9U8iKRouWhas2-132" value="End" style="rounded=1;whiteSpace=wrap;html=1;fillColor=#fff2cc;strokeColor=#d6b656;" vertex="1" parent="1">
          <mxGeometry x="2100" y="508.13" width="120" height="30" as="geometry" />
        </mxCell>
        <mxCell id="cWhjbkL9U8iKRouWhas2-134" value="Run upload function" style="rounded=0;whiteSpace=wrap;html=1;fillColor=#d5e8d4;strokeColor=#82b366;" vertex="1" parent="1">
          <mxGeometry x="2180" y="1421.88" width="120" height="39.99" as="geometry" />
        </mxCell>
        <mxCell id="cWhjbkL9U8iKRouWhas2-137" value="Run upload function" style="rounded=0;whiteSpace=wrap;html=1;fillColor=#d5e8d4;strokeColor=#82b366;" vertex="1" parent="1">
          <mxGeometry x="2160" y="1843.13" width="120" height="39.99" as="geometry" />
        </mxCell>
        <mxCell id="cWhjbkL9U8iKRouWhas2-139" value="Run upload function" style="rounded=0;whiteSpace=wrap;html=1;fillColor=#d5e8d4;strokeColor=#82b366;" vertex="1" parent="1">
          <mxGeometry x="2130" y="2241.88" width="120" height="39.99" as="geometry" />
        </mxCell>
      </root>
    </mxGraphModel>
  </diagram>
</mxfile>
